<?xml version="1.0" standalone="no"?>
<!DOCTYPE svg PUBLIC "-//W3C//DTD SVG 20010904//EN"
        "http://www.w3.org/TR/2001/REC-SVG-20010904/DTD/svg10.dtd">
<svg version="1.0" xmlns="http://www.w3.org/2000/svg"
     width="600.000000pt" height="484.000000pt" viewBox="0 0 600.000000 484.000000"
     preserveAspectRatio="xMidYMid meet">

    <rect width="100%" height="100%" fill="white"/>

    <g transform="translate(0.000000,484.000000) scale(0.100000,-0.100000)"
       fill="#000000" stroke="none">
        <path d="M832 4824 c-13 -9 -61 -92 -108 -186 -116 -232 -127 -206 157 -348
120 -61 229 -110 242 -110 38 0 66 28 107 111 l40 79 84 -42 84 -42 -41 -82
c-23 -46 -39 -85 -37 -87 8 -6 581 -297 586 -297 2 0 17 26 34 58 l30 57 -4
-45 c-4 -35 -2 -30 10 20 8 36 35 107 59 158 25 51 45 94 45 97 0 6 -576 295
-588 295 -4 0 -26 -36 -47 -80 -21 -44 -43 -80 -47 -80 -15 0 -158 75 -158 82
0 5 16 40 35 78 39 77 44 118 18 149 -24 27 -423 231 -454 231 -14 0 -35 -7
-47 -16z m277 -103 c120 -61 221 -117 225 -126 14 -37 3 -72 -69 -215 -83
-165 -102 -190 -142 -190 -16 1 -122 49 -238 108 -170 87 -213 112 -224 136
-13 27 -9 36 70 198 82 166 105 198 141 198 10 0 117 -49 237 -109z m712 -412
c153 -77 279 -144 279 -148 0 -19 -151 -321 -160 -321 -6 0 -136 63 -290 140
l-279 140 43 87 c84 172 120 243 124 243 2 0 129 -63 283 -141z"/>
        <path d="M557 4279 c-21 -12 -187 -340 -187 -370 0 -11 5 -29 10 -40 11 -20
437 -239 464 -239 40 0 67 26 107 104 23 45 43 82 44 84 1 1 41 -16 89 -37
l87 -40 -41 -82 c-23 -45 -38 -85 -33 -89 13 -13 561 -290 572 -290 6 0 29 36
51 80 22 44 44 80 48 80 14 0 112 -60 112 -69 0 -5 -10 -21 -22 -37 -33 -42
-329 -374 -334 -374 -2 0 7 22 21 50 14 27 25 54 25 59 0 9 -564 301 -581 301
-5 0 -27 -36 -49 -80 -22 -44 -45 -80 -51 -80 -5 0 -28 9 -50 21 -23 11 -43
19 -45 16 -2 -2 19 -14 46 -27 28 -13 50 -25 50 -27 0 -2 -18 -40 -41 -84 -22
-45 -39 -82 -37 -84 9 -8 591 -296 593 -293 1 2 22 42 46 89 36 71 76 122 213
278 94 105 171 191 173 191 2 0 -50 -107 -116 -237 -65 -131 -162 -327 -215
-436 l-96 -197 226 -451 c124 -248 223 -453 220 -456 -3 -3 -55 30 -116 72
-110 76 -111 78 -153 161 -23 46 -45 84 -49 84 -12 0 -588 -289 -588 -295 0
-3 18 -42 41 -86 22 -45 39 -82 37 -84 -2 -1 -31 -15 -66 -30 -34 -15 -61 -30
-59 -32 2 -2 29 8 61 22 31 14 61 25 66 25 5 0 28 -36 50 -80 22 -44 43 -80
45 -80 17 0 585 292 585 301 0 5 -14 37 -31 70 -17 34 -28 63 -26 65 9 10 229
-151 238 -174 11 -29 12 -289 1 -296 -5 -3 -24 26 -42 64 l-33 68 -291 -145
c-160 -80 -293 -147 -296 -149 -2 -3 13 -38 33 -80 20 -41 37 -80 37 -87 0 -6
-25 -23 -55 -36 -31 -13 -54 -25 -52 -28 2 -2 30 8 61 23 32 14 59 24 60 23 2
-2 22 -41 45 -87 l42 -83 182 94 c100 52 233 120 295 151 l112 56 -41 81 -41
82 1 145 c1 80 3 148 6 150 2 2 43 -75 92 -172 l88 -176 902 0 903 0 79 158
c44 86 80 150 80 141 1 -9 -22 -128 -49 -263 -43 -212 -56 -258 -90 -326 -22
-44 -40 -82 -40 -85 0 -5 575 -295 585 -295 3 0 23 36 45 80 22 44 43 80 47
80 15 0 163 -74 163 -81 0 -5 -16 -38 -36 -74 -40 -73 -46 -125 -19 -155 25
-27 428 -230 457 -230 45 0 69 32 149 192 79 161 92 205 66 239 -19 26 -433
229 -465 229 -39 0 -61 -24 -101 -108 -19 -40 -41 -72 -48 -72 -11 0 -149 65
-161 75 -2 2 15 40 38 85 23 45 40 83 38 85 -3 2 -561 285 -580 293 -4 2 -21
-23 -37 -55 -17 -32 -30 -51 -31 -42 0 29 100 513 109 522 5 5 35 -5 70 -22
l61 -31 -42 -85 c-23 -46 -40 -86 -38 -89 3 -2 136 -69 297 -149 l291 -146 43
82 c23 45 43 83 44 85 2 2 156 -67 164 -74 2 -2 -12 -39 -32 -82 -41 -86 -45
-116 -21 -150 17 -25 422 -232 453 -232 54 0 71 21 157 192 46 93 84 175 84
183 0 50 -23 67 -242 176 -120 60 -228 109 -241 109 -38 0 -66 -28 -107 -110
l-40 -79 -57 25 c-31 14 -69 32 -85 40 l-28 14 41 82 c22 44 37 84 32 88 -13
12 -568 290 -579 290 -6 0 -28 -36 -49 -80 -21 -44 -40 -80 -42 -80 -13 0
-123 62 -123 69 0 11 42 60 225 264 71 80 132 144 134 141 2 -2 -8 -27 -23
-55 -16 -28 -26 -52 -24 -53 10 -9 580 -296 586 -296 5 0 26 36 47 80 21 44
43 80 48 80 11 0 150 -60 160 -69 4 -4 -11 -46 -33 -93 -40 -83 -41 -86 -26
-121 14 -34 31 -44 225 -142 213 -106 256 -120 292 -92 25 19 179 333 179 365
0 15 -6 36 -14 47 -8 11 -113 69 -235 130 l-220 109 -35 -17 c-28 -13 -44 -33
-76 -97 -22 -44 -43 -80 -45 -80 -16 0 -165 74 -165 82 0 5 16 40 35 78 19 38
35 74 35 80 0 9 -579 305 -585 298 -1 -2 -21 -39 -43 -83 -32 -65 -74 -118
-217 -278 -97 -108 -179 -197 -181 -197 -2 0 94 196 213 435 l218 435 -238
475 c-130 261 -237 477 -237 480 0 4 76 47 112 63 4 2 25 -33 48 -77 22 -45
45 -81 50 -81 6 0 141 65 300 145 l290 145 -40 80 c-22 44 -40 83 -40 88 0 8
161 85 165 80 2 -2 19 -35 38 -74 39 -77 75 -114 113 -114 29 0 433 205 457
232 30 35 20 73 -63 238 -86 173 -107 196 -163 187 -19 -3 -126 -53 -239 -111
-251 -130 -249 -127 -195 -245 20 -43 37 -84 39 -91 2 -7 -31 -28 -80 -51
l-82 -38 -41 82 c-23 45 -43 83 -44 85 -3 4 -565 -276 -582 -290 -9 -7 -3 -29
27 -89 22 -43 40 -81 40 -84 0 -6 -102 -65 -112 -65 -5 0 -53 90 -108 200
l-100 200 -905 0 -905 0 -80 -157 c-45 -87 -79 -147 -76 -133 38 178 67 333
63 336 -2 2 -16 -58 -31 -133 -39 -196 -63 -294 -73 -304 -8 -8 -123 45 -123
57 0 2 18 41 41 85 22 45 39 82 37 84 -2 1 -135 69 -295 149 l-293 146 -40
-79 c-22 -44 -43 -81 -47 -84 -5 -2 -45 13 -91 34 l-83 38 41 80 c46 93 49
123 16 156 -34 34 -420 225 -453 225 -16 0 -36 -5 -46 -11z m277 -105 c116
-59 214 -112 219 -118 24 -36 18 -60 -54 -208 -78 -158 -113 -208 -148 -208
-33 0 -437 206 -455 232 -9 12 -16 31 -16 40 0 24 147 317 173 346 11 12 32
22 45 22 14 0 120 -48 236 -106z m4591 100 c20 -8 185 -335 185 -367 0 -13 -8
-32 -18 -43 -11 -10 -114 -66 -230 -124 -186 -92 -214 -103 -239 -95 -23 8
-43 39 -117 185 -86 170 -89 177 -75 205 12 25 51 49 224 137 203 103 234 115
270 102z m-613 -530 c44 -91 78 -167 76 -169 -1 -1 -130 -66 -285 -144 l-282
-141 -38 73 c-106 204 -127 247 -118 256 9 8 555 290 563 291 2 0 39 -75 84
-166z m-3251 15 l278 -141 -80 -161 c-45 -89 -83 -163 -84 -165 -2 -3 -564
275 -573 283 -7 6 159 325 169 325 6 0 136 -63 290 -141z m2347 -4 c7 -14 12
-28 12 -30 0 -3 -55 -32 -122 -66 -68 -34 -124 -62 -126 -64 -2 -1 29 -63 68
-138 38 -74 70 -140 70 -146 0 -7 -42 -11 -130 -11 l-130 0 0 55 c0 46 -4 60
-25 80 l-24 25 -498 0 c-380 0 -504 -3 -523 -13 -22 -11 -26 -21 -30 -77 l-5
-65 -132 -3 c-73 -1 -133 0 -133 3 0 3 32 68 70 145 39 77 70 142 70 145 0 3
-56 33 -125 67 l-124 61 15 28 15 29 898 0 898 0 11 -25z m341 -717 c1 -7
-211 -118 -224 -118 -6 0 -335 656 -335 668 0 4 51 33 113 64 l112 56 167
-332 c92 -182 167 -334 167 -338z m-2049 607 l110 -55 -166 -333 c-91 -182
-167 -333 -169 -335 -2 -3 -224 105 -233 113 -7 6 329 665 338 665 6 0 60 -25
120 -55z m1320 -215 c18 -18 20 -33 20 -132 0 -90 -3 -115 -17 -130 -15 -17
-45 -18 -528 -18 -384 0 -514 3 -523 12 -8 8 -12 54 -12 140 0 124 1 129 23
138 12 5 246 9 520 9 484 1 498 0 517 -19z m-2247 -211 c155 -78 283 -142 285
-144 1 -1 -34 -77 -77 -169 l-80 -166 -283 141 c-156 78 -285 143 -287 145 -5
4 149 334 156 334 2 0 130 -64 286 -141z m1177 14 c0 -96 -8 -93 287 -93 l253
0 0 -80 0 -80 -185 0 -185 0 -141 -282 -141 -283 141 -282 141 -283 185 0 185
0 0 -65 0 -65 -252 0 c-297 0 -288 3 -288 -97 l0 -63 -143 0 -142 0 -93 185
c-50 102 -97 185 -102 185 -6 0 -63 -27 -128 -59 l-118 -59 -152 304 -152 304
152 304 152 304 118 -59 c65 -32 122 -59 128 -59 5 0 53 86 105 190 l95 190
140 0 140 0 0 -57z m1470 -133 c52 -104 98 -190 102 -190 5 0 62 27 128 60
l120 60 152 -305 153 -305 -153 -305 -152 -305 -120 60 c-66 33 -124 60 -129
60 -6 0 -52 -83 -103 -185 l-93 -185 -137 0 -138 0 0 58 c0 36 -6 66 -16 80
-15 22 -18 22 -275 22 l-259 0 0 65 0 65 188 0 187 0 141 283 141 282 -141
283 -141 282 -187 0 -188 0 0 80 0 80 255 0 c242 0 256 1 275 20 15 15 20 33
20 75 l0 55 138 0 137 0 95 -190z m-928 -172 l1 -43 4 43 4 42 185 0 184 0
135 -270 c74 -148 135 -277 135 -285 0 -8 -61 -137 -135 -285 l-135 -270 -185
0 -185 0 0 200 0 200 169 0 c225 0 216 -7 216 168 0 181 11 172 -212 172
l-173 0 -2 58 -2 57 -3 -57 -4 -58 -171 0 c-145 0 -174 -3 -190 -17 -16 -14
-18 -33 -18 -148 0 -97 4 -136 14 -151 13 -17 30 -19 190 -22 l176 -3 0 -200
0 -199 -183 0 -182 0 -139 277 -138 278 138 277 139 278 182 0 183 0 2 -42z
m356 -354 c21 -14 22 -22 22 -143 0 -85 -4 -131 -12 -139 -9 -9 -104 -12 -365
-12 l-353 0 -10 26 c-6 14 -10 75 -10 135 0 162 -32 149 373 149 285 0 336 -2
355 -16z m1822 -761 c2 -2 -33 -78 -78 -169 l-82 -164 -282 141 c-156 78 -285
143 -288 146 -2 2 33 78 78 169 l82 164 282 -141 c156 -78 285 -143 288 -146z
m-3027 -228 l167 -335 -110 -55 c-60 -30 -114 -55 -119 -55 -8 0 -341 649
-341 664 0 7 210 115 225 115 6 1 85 -150 178 -334z m1997 280 c61 -30 110
-57 110 -60 0 -16 -332 -665 -340 -665 -9 0 -209 97 -219 106 -8 7 324 674
335 674 2 0 54 -25 114 -55z m-2520 -205 c44 -88 80 -162 80 -165 0 -2 -129
-69 -286 -148 l-286 -144 -79 159 c-43 87 -79 162 -79 168 0 9 543 288 562
289 5 1 44 -71 88 -159z m4035 -17 c105 -52 200 -104 213 -116 13 -12 22 -32
22 -49 0 -28 -138 -317 -168 -350 -31 -36 -75 -23 -281 83 -108 56 -204 109
-213 117 -33 28 -22 75 56 230 86 171 110 199 161 185 11 -3 106 -48 210 -100z
m-2135 57 c19 -12 28 -246 10 -279 -11 -21 -14 -21 -528 -21 -390 0 -521 3
-530 12 -8 8 -12 54 -12 143 0 89 4 135 12 143 15 15 1024 17 1048 2z m-1070
-223 c3 -45 10 -71 20 -77 9 -6 224 -10 532 -10 l517 0 15 22 c10 14 16 44 16
80 l0 58 135 0 135 0 -75 -149 c-56 -112 -71 -152 -62 -159 7 -5 63 -35 125
-66 61 -31 112 -58 112 -61 0 -2 -5 -16 -12 -30 l-11 -25 -898 0 -898 0 -16
30 -15 30 122 61 c68 34 124 63 126 64 2 2 -29 66 -67 144 -39 77 -71 145 -71
151 0 7 45 10 133 8 l132 -3 5 -68z m2164 -69 l284 -142 -81 -163 c-45 -90
-85 -163 -89 -163 -12 0 -568 279 -568 285 0 10 160 325 165 325 3 0 133 -64
289 -142z m-2717 -301 l81 -163 -284 -142 c-156 -78 -286 -142 -289 -142 -5 0
-165 315 -165 325 0 6 551 284 565 284 6 1 47 -72 92 -162z m3488 -15 c172
-88 213 -112 224 -136 13 -28 10 -36 -70 -199 -82 -166 -105 -197 -142 -197
-25 0 -438 207 -454 228 -23 29 -14 61 63 215 84 168 105 197 143 197 14 -1
121 -49 236 -108z m-836 -535 c-45 -89 -83 -163 -84 -165 -2 -3 -564 275 -573
283 -2 1 34 77 79 168 l83 165 288 -144 288 -144 -81 -163z m554 -8 c111 -56
210 -108 220 -117 30 -27 19 -68 -65 -237 -68 -136 -87 -166 -111 -176 -28
-12 -43 -5 -249 97 -121 60 -224 117 -229 126 -5 9 -9 28 -9 42 0 27 140 317
168 349 8 9 28 17 44 17 16 0 116 -44 231 -101z"/>
        <path d="M2641 3653 c-22 -60 -24 -70 -11 -50 6 9 20 17 30 17 10 0 24 -8 30
-17 13 -20 11 -10 -11 50 -7 20 -16 37 -19 37 -3 0 -12 -17 -19 -37z m29 -8
c0 -8 -4 -15 -10 -15 -5 0 -10 7 -10 15 0 8 5 15 10 15 6 0 10 -7 10 -15z"/>
        <path d="M2903 3640 c0 -30 2 -43 4 -27 2 15 2 39 0 55 -2 15 -4 2 -4 -28z"/>
        <path d="M3128 3675 c-7 -13 2 -85 11 -85 4 0 5 17 3 38 -5 50 -7 58 -14 47z"/>
        <path d="M2721 3603 c1 -32 4 -48 6 -35 2 12 9 22 15 22 7 0 6 5 -2 15 -6 8
-9 23 -5 35 4 11 2 20 -4 20 -7 0 -10 -23 -10 -57z"/>
        <path d="M2766 3646 c16 -13 17 -18 6 -35 -7 -12 -8 -21 -3 -21 13 0 22 30 16
51 -4 11 -14 19 -23 19 -13 0 -13 -2 4 -14z"/>
        <path d="M2810 3603 c0 -31 2 -54 5 -51 9 8 11 108 3 108 -5 0 -8 -25 -8 -57z"/>
        <path d="M2854 3644 c12 -12 13 -20 6 -35 -6 -11 -7 -19 -1 -19 13 0 22 30 16
51 -4 11 -13 19 -21 19 -13 0 -13 -2 0 -16z"/>
        <path d="M2943 3625 c0 -22 2 -30 4 -17 2 12 2 30 0 40 -3 9 -5 -1 -4 -23z"/>
        <path d="M2974 3646 c-8 -22 -1 -49 14 -52 7 -1 8 0 2 3 -14 7 -13 50 3 56 9
4 9 6 -1 6 -7 1 -15 -5 -18 -13z"/>
        <path d="M3087 3628 c7 -46 13 -48 13 -5 0 21 -4 37 -9 37 -5 0 -7 -15 -4 -32z"/>
        <path d="M3183 3625 c0 -22 2 -30 4 -17 2 12 2 30 0 40 -3 9 -5 -1 -4 -23z"/>
        <path d="M3215 3649 c-10 -14 3 -59 16 -59 8 0 7 6 -2 16 -10 12 -10 20 -1 35
7 10 8 19 3 19 -6 0 -13 -5 -16 -11z"/>
        <path d="M3260 3653 c5 -2 10 -15 10 -28 0 -13 -5 -26 -10 -28 -6 -3 -5 -4 2
-3 7 2 13 15 13 31 0 16 -6 29 -13 31 -7 1 -8 0 -2 -3z"/>
        <path d="M3301 3623 c1 -35 1 -36 9 -11 4 14 11 31 15 37 3 6 -1 11 -9 11 -12
0 -16 -10 -15 -37z"/>
        <path d="M3347 3649 c6 -8 13 -25 16 -39 4 -17 5 -15 4 9 -1 21 -8 36 -17 39
-12 4 -13 2 -3 -9z"/>
        <path d="M3047 3623 c-10 -9 -9 -33 1 -33 4 0 8 9 8 20 0 23 0 22 -9 13z"/>
        <path d="M3908 3429 c-40 -21 -51 -34 -19 -24 10 3 24 -1 31 -10 16 -19 49
-20 56 -1 6 15 -12 56 -24 56 -4 -1 -24 -10 -44 -21z m60 -16 c5 -17 -26 -29
-40 -15 -6 6 -7 15 -3 22 9 14 37 9 43 -7z"/>
        <path d="M3930 3340 c-17 -17 -18 -24 -10 -41 13 -24 48 -22 64 4 8 12 8 22 0
34 -16 25 -31 26 -54 3z m50 -19 c0 -24 -39 -39 -51 -20 -10 17 8 39 32 39 12
0 19 -7 19 -19z"/>
        <path d="M3969 3259 l-24 -20 24 11 c12 7 32 9 43 7 16 -4 17 -3 7 9 -15 19
-22 18 -50 -7z"/>
        <path d="M4008 3214 c-16 -8 -28 -21 -28 -29 0 -11 5 -10 20 5 11 11 27 20 35
20 8 0 15 5 15 10 0 13 -10 12 -42 -6z"/>
        <path d="M2049 3430 c-8 -6 0 -13 26 -24 28 -12 42 -13 49 -6 8 8 6 9 -6 5
-10 -4 -24 1 -36 13 -12 12 -25 17 -33 12z"/>
        <path d="M2030 3365 c0 -2 14 -11 30 -20 17 -9 30 -12 30 -7 0 5 -11 14 -25
20 -28 13 -35 14 -35 7z"/>
        <path d="M2010 3330 c-10 -6 -5 -9 16 -12 33 -3 46 -34 18 -45 -11 -4 -23 1
-36 16 -14 18 -18 20 -18 7 0 -9 11 -22 25 -28 49 -22 74 36 28 61 -11 5 -25
6 -33 1z"/>
        <path d="M1943 3258 c-25 -32 -23 -38 16 -58 45 -22 64 -26 41 -7 -8 7 -15 25
-15 42 0 32 -24 46 -42 23z m35 -26 c4 -23 -4 -27 -27 -13 -17 11 -7 45 12 39
6 -3 13 -14 15 -26z"/>
        <path d="M3023 3349 c-43 -16 -41 -84 3 -95 14 -4 28 -4 31 0 4 3 -3 6 -15 6
-49 0 -48 75 0 82 13 2 19 6 13 9 -5 4 -20 3 -32 -2z"/>
        <path d="M2704 3311 c1 -30 7 -47 19 -55 29 -19 52 4 53 55 1 24 0 33 -2 19
-12 -66 -14 -71 -37 -68 -18 2 -23 12 -28 48 l-7 45 2 -44z"/>
        <path d="M2804 3318 c-4 -7 2 -18 14 -26 27 -18 28 -29 2 -35 -17 -4 -17 -4 2
-3 30 1 36 32 9 41 -28 8 -27 23 2 28 22 4 22 4 0 6 -12 0 -25 -4 -29 -11z"/>
        <path d="M2882 3318 c-26 -26 -6 -69 33 -67 17 1 17 2 -4 8 -35 9 -39 31 -6
31 20 0 26 4 23 17 -4 22 -29 28 -46 11z m38 -8 c0 -5 -9 -10 -21 -10 -11 0
-17 5 -14 10 3 6 13 10 21 10 8 0 14 -4 14 -10z"/>
        <path d="M3113 3324 c23 -7 21 -17 -5 -29 -28 -12 -30 -39 -3 -43 18 -3 19 -2
2 8 -9 6 -15 15 -12 21 10 15 33 10 39 -8 2 -10 4 -2 3 17 -2 27 -7 35 -22 37
-16 1 -16 1 -2 -3z"/>
        <path d="M3177 3323 c-13 -13 -7 -31 13 -36 27 -7 25 -27 -2 -28 -19 -1 -20
-2 -4 -6 10 -3 23 0 30 7 8 9 5 16 -11 30 -28 22 -28 27 -5 33 14 4 14 5 1 6
-9 0 -19 -2 -22 -6z"/>
        <path d="M3244 3316 c-12 -31 0 -61 26 -63 25 -3 25 -3 3 7 -31 13 -29 30 3
30 19 0 25 5 22 18 -4 22 -46 29 -54 8z m41 -6 c3 -5 -3 -10 -14 -10 -12 0
-21 5 -21 10 0 6 6 10 14 10 8 0 18 -4 21 -10z"/>
        <path d="M2740 2805 c0 -54 1 -55 28 -55 37 0 52 17 52 57 0 27 -5 35 -26 43
-48 19 -54 14 -54 -45z m68 7 c4 -28 -14 -52 -39 -52 -16 0 -19 8 -19 41 0 38
1 40 28 37 19 -2 28 -9 30 -26z"/>
        <path d="M2852 2818 c-27 -27 -3 -73 35 -66 27 5 25 72 -2 76 -11 1 -26 -3
-33 -10z m43 -28 c0 -16 -6 -26 -17 -28 -14 -3 -18 3 -18 28 0 25 4 31 18 28
11 -2 17 -12 17 -28z"/>
        <path d="M2930 2790 c0 -22 5 -40 10 -40 6 0 10 16 10 35 0 24 5 35 15 35 10
0 15 -11 15 -35 0 -19 5 -35 10 -35 6 0 10 16 10 35 0 24 5 35 15 35 10 0 15
-11 15 -35 0 -19 5 -35 10 -35 12 0 13 50 2 66 -4 6 -31 12 -59 13 l-53 1 0
-40z"/>
        <path d="M3093 2823 c23 -6 21 -16 -5 -28 -34 -15 -29 -39 10 -43 28 -3 32 0
32 22 0 39 -10 56 -34 55 -16 -1 -17 -2 -3 -6z m17 -48 c0 -8 -7 -15 -15 -15
-8 0 -15 7 -15 15 0 8 7 15 15 15 8 0 15 -7 15 -15z"/>
        <path d="M3153 2790 c0 -25 2 -35 4 -22 2 12 2 32 0 45 -2 12 -4 2 -4 -23z"/>
        <path d="M3191 2786 l2 -41 6 35 c4 22 12 35 21 35 9 0 18 -13 22 -35 l6 -35
-1 40 c-2 36 -5 40 -29 41 -26 1 -28 -1 -27 -40z"/>
        <path d="M2760 2435 l0 -55 33 1 c29 1 30 2 7 8 -14 4 -25 13 -25 21 0 8 11
17 25 21 l25 6 -24 4 c-34 6 -39 29 -7 29 14 0 26 5 26 10 0 6 -13 10 -30 10
-30 0 -30 -1 -30 -55z"/>
        <path d="M2980 2479 c0 -5 5 -7 10 -4 6 3 10 8 10 11 0 2 -4 4 -10 4 -5 0 -10
-5 -10 -11z"/>
        <path d="M2928 2470 c-2 -6 -2 -29 0 -51 3 -27 9 -39 20 -39 12 0 13 3 4 12
-15 15 -16 55 -1 60 7 2 6 8 -4 16 -10 9 -16 9 -19 2z"/>
        <path d="M3018 2469 c-2 -6 -2 -28 0 -50 3 -27 9 -39 20 -39 12 0 13 3 4 12
-14 14 -16 55 -3 60 5 2 3 8 -4 15 -9 8 -15 9 -17 2z"/>
        <path d="M2841 2418 c1 -43 1 -43 9 -10 4 18 10 35 13 39 12 11 27 -10 27 -38
0 -16 5 -29 10 -29 11 0 13 39 4 64 -4 10 -18 16 -35 16 -28 0 -29 -2 -28 -42z"/>
        <path d="M2980 2420 c0 -25 4 -39 10 -35 6 3 10 19 10 35 0 16 -4 32 -10 35
-6 4 -10 -10 -10 -35z"/>
        <path d="M3070 2420 c0 -25 4 -39 10 -35 6 3 10 19 10 35 0 16 -4 32 -10 35
-6 4 -10 -10 -10 -35z"/>
        <path d="M3112 2448 c-15 -15 -15 -41 0 -56 14 -14 44 -16 52 -4 3 5 -4 8 -16
8 -12 -1 -23 5 -25 12 -3 7 5 12 22 12 20 0 26 4 23 18 -4 21 -39 27 -56 10z
m38 -8 c0 -5 -7 -10 -16 -10 -8 0 -12 5 -9 10 3 6 10 10 16 10 5 0 9 -4 9 -10z"/>
        <path d="M3184 2448 c-4 -7 2 -18 14 -26 25 -16 30 -37 7 -29 -8 4 -17 1 -21
-4 -4 -7 5 -9 22 -7 35 4 45 33 15 43 -26 8 -27 22 -3 28 13 4 12 5 -5 6 -12
0 -25 -4 -29 -11z"/>
        <path d="M1995 1644 c-11 -8 -27 -13 -36 -11 -9 2 -16 -2 -16 -9 0 -8 3 -14 6
-14 9 0 71 39 71 45 0 7 -3 6 -25 -11z"/>
        <path d="M2017 1589 c-10 -6 -24 -8 -32 -5 -9 3 -12 0 -8 -10 3 -7 7 -14 10
-14 8 0 63 31 63 35 0 8 -14 5 -33 -6z"/>
        <path d="M2016 1547 c-13 -9 -16 -20 -12 -34 10 -30 31 -35 58 -13 19 15 21
22 12 37 -14 23 -35 27 -58 10z m49 -22 c0 -22 -31 -33 -48 -16 -7 7 -6 15 3
26 17 21 45 15 45 -10z"/>
        <path d="M2027 1453 c-10 -9 -8 -35 2 -51 7 -11 16 -10 50 7 42 22 55 37 22
26 -12 -3 -21 0 -25 10 -5 15 -37 21 -49 8z m42 -17 c9 -11 8 -15 -5 -20 -26
-10 -34 -7 -34 14 0 23 22 27 39 6z"/>
        <path d="M3998 1642 c9 -10 22 -17 27 -15 6 1 16 -1 24 -6 12 -8 13 -12 1 -25
-12 -15 -15 -15 -33 1 -14 13 -19 14 -15 4 2 -8 12 -19 22 -25 13 -9 20 -7 32
8 21 30 17 41 -21 59 -46 22 -59 22 -37 -1z"/>
        <path d="M3937 1573 c-4 -3 -7 -11 -7 -17 0 -6 4 -5 9 2 13 21 46 10 49 -16 4
-25 -24 -31 -47 -9 -11 10 -13 9 -9 -3 3 -9 17 -15 34 -15 23 0 30 5 32 24 5
32 -39 56 -61 34z"/>
        <path d="M3914 1495 c11 -8 23 -15 27 -15 4 0 9 -10 11 -22 3 -23 3 -23 9 -2
5 18 0 25 -30 38 -29 13 -32 14 -17 1z"/>
        <path d="M3870 1442 c0 -4 10 -9 22 -9 13 -1 28 -9 34 -18 8 -11 14 -13 19 -5
8 13 9 12 -28 28 -32 14 -47 15 -47 4z"/>
        <path d="M2704 1565 c1 -47 3 -50 30 -53 35 -4 46 11 44 63 l-1 40 -6 -45 c-5
-40 -9 -45 -31 -45 -22 0 -26 5 -31 45 l-7 45 2 -50z"/>
        <path d="M3005 1590 c-15 -16 -17 -26 -9 -47 10 -27 49 -49 59 -33 4 6 -5 10
-18 10 -47 0 -42 74 5 83 22 4 22 4 2 6 -11 0 -29 -8 -39 -19z"/>
        <path d="M2885 1574 c-28 -28 -14 -64 24 -63 25 1 25 1 3 7 -13 4 -23 10 -23
15 1 4 1 14 1 22 0 8 7 15 15 15 8 0 15 -7 15 -16 0 -8 4 -13 10 -9 12 7 2 32
-15 39 -8 3 -21 -2 -30 -10z"/>
        <path d="M3183 1583 c-20 -7 -15 -31 10 -45 l22 -12 -25 -7 -25 -8 24 2 c31 3
40 27 12 34 -26 7 -27 20 -3 25 9 2 13 6 7 9 -5 4 -16 4 -22 2z"/>
        <path d="M2807 1573 c-12 -12 -7 -22 13 -28 27 -9 25 -25 -2 -25 -18 0 -20 -2
-9 -9 18 -12 41 -3 41 15 0 7 -10 19 -22 26 l-23 12 25 7 c22 6 22 7 4 8 -11
1 -24 -2 -27 -6z"/>
        <path d="M3113 1573 c26 -7 23 -53 -4 -53 -19 0 -20 2 -8 17 12 14 12 16 -1
11 -25 -8 -17 -33 13 -36 25 -3 27 -1 27 32 0 31 -3 36 -22 35 -17 -1 -19 -2
-5 -6z"/>
        <path d="M3247 1574 c-4 -4 -7 -18 -7 -30 0 -25 34 -51 45 -34 3 5 -3 10 -13
10 -14 0 -19 7 -19 25 0 18 5 25 19 25 10 0 16 -4 13 -10 -3 -5 -1 -10 5 -10
7 0 10 6 8 13 -5 14 -40 21 -51 11z"/>
        <path d="M2721 4268 c-6 -16 -16 -40 -21 -55 -9 -25 -8 -26 4 -10 7 9 23 17
34 17 11 0 23 -8 25 -17 3 -13 5 -14 6 -3 0 8 -8 33 -18 55 l-19 40 -11 -27z
m29 -30 c0 -5 -7 -8 -15 -8 -17 0 -18 2 -9 25 5 13 8 14 15 3 5 -7 9 -16 9
-20z"/>
        <path d="M2839 4278 c-4 -75 -3 -88 9 -88 8 0 12 17 12 50 0 28 -4 50 -10 50
-5 0 -10 -6 -11 -12z"/>
        <path d="M3058 4275 c-7 -12 -3 -73 6 -82 10 -11 12 0 6 47 -3 25 -8 41 -12
35z"/>
        <path d="M2794 4246 c-8 -22 -1 -49 14 -52 7 -1 8 0 2 3 -14 7 -13 50 3 56 9
4 9 6 -1 6 -7 1 -15 -5 -18 -13z"/>
        <path d="M2915 4253 c15 -12 17 -34 4 -49 -9 -11 -8 -14 5 -14 13 0 17 7 14
32 -2 17 -10 33 -18 35 -9 3 -11 1 -5 -4z"/>
        <path d="M2963 4216 c2 -41 16 -77 18 -45 4 79 3 89 -8 89 -8 0 -11 -15 -10
-44z"/>
        <path d="M3010 4253 c5 -2 10 -15 10 -28 0 -13 -5 -26 -10 -28 -6 -3 -5 -4 2
-3 7 2 13 15 13 31 0 16 -6 29 -13 31 -7 1 -8 0 -2 -3z"/>
        <path d="M3105 4241 c-8 -25 4 -51 24 -51 13 0 13 2 2 9 -8 5 -12 19 -9 35 6
30 -8 36 -17 7z"/>
        <path d="M3146 4246 c3 -9 11 -16 16 -16 13 0 5 23 -10 28 -7 2 -10 -2 -6 -12z"/>
        <path d="M3191 4223 c1 -27 3 -31 6 -13 2 14 12 31 21 38 14 11 13 12 -6 12
-19 0 -22 -5 -21 -37z"/>
        <path d="M3250 4245 c0 -8 10 -19 21 -26 18 -9 19 -13 8 -21 -12 -8 -12 -9 0
-6 24 7 25 29 1 35 -13 3 -19 11 -16 19 3 8 1 14 -4 14 -6 0 -10 -7 -10 -15z"/>
        <path d="M2887 4223 c-10 -9 -9 -33 1 -33 4 0 8 9 8 20 0 23 0 22 -9 13z"/>
        <path d="M305 3742 c-35 -7 -46 -24 -132 -196 -86 -173 -92 -197 -60 -234 12
-16 398 -211 438 -222 48 -14 81 13 124 101 28 57 44 79 55 76 8 -3 24 -8 35
-12 11 -3 8 1 -7 10 -16 8 -28 20 -28 26 0 5 16 41 35 79 40 79 44 121 15 150
-21 21 -387 208 -430 219 -14 4 -34 5 -45 3z m254 -113 c108 -55 204 -108 214
-117 9 -8 17 -28 17 -44 0 -28 -138 -317 -168 -350 -31 -35 -74 -22 -292 87
-269 136 -258 114 -155 325 42 85 86 165 98 178 38 40 73 31 286 -79z"/>
        <path d="M488 1379 c-111 -55 -213 -110 -225 -121 -45 -42 -41 -63 51 -247 47
-93 94 -175 105 -181 11 -5 31 -10 45 -10 30 0 420 192 454 223 31 29 28 66
-13 147 -38 75 -42 95 -22 104 6 3 3 4 -8 1 -17 -4 -27 9 -63 80 -41 83 -63
105 -107 105 -7 0 -105 -45 -217 -101z m260 75 c26 -18 182 -323 182 -355 0
-11 -5 -29 -10 -40 -14 -25 -421 -229 -458 -229 -42 0 -61 27 -147 200 -77
156 -84 185 -52 216 21 21 425 224 444 224 10 0 29 -7 41 -16z"/>
        <path d="M748 825 c-205 -104 -238 -127 -238 -172 0 -13 38 -99 84 -191 84
-168 103 -192 152 -192 8 0 113 49 233 110 216 108 241 126 241 173 0 7 -18
51 -40 96 -22 46 -39 85 -38 86 2 1 12 7 23 14 18 10 17 11 -7 5 -25 -6 -29
-1 -67 75 -43 84 -61 101 -108 100 -15 0 -121 -47 -235 -104z m296 63 c13 -18
56 -98 96 -178 72 -147 78 -172 47 -209 -15 -18 -424 -221 -446 -221 -37 0
-65 38 -141 191 -81 161 -90 191 -67 223 21 28 417 225 454 226 25 0 38 -7 57
-32z"/>
    </g>
</svg>
