<?xml version="1.0" standalone="no"?>
<!DOCTYPE svg PUBLIC "-//W3C//DTD SVG 20010904//EN"
 "http://www.w3.org/TR/2001/REC-SVG-20010904/DTD/svg10.dtd">
<svg version="1.0" xmlns="http://www.w3.org/2000/svg"
 width="689.000000pt" height="454.000000pt" viewBox="0 0 689.000000 454.000000"
 preserveAspectRatio="xMidYMid meet">

<g transform="translate(0.000000,454.000000) scale(0.100000,-0.100000)"
fill="#000000" stroke="none">
<path d="M1878 4433 c7 -3 16 -2 19 1 4 3 -2 6 -13 5 -11 0 -14 -3 -6 -6z"/>
<path d="M1917 4433 c-3 -5 721 -8 1609 -8 888 0 1614 3 1614 8 0 9 -3217 9
-3223 0z"/>
<path d="M1806 4343 c-6 -14 -5 -15 5 -6 7 7 10 15 7 18 -3 3 -9 -2 -12 -12z"/>
<path d="M5640 4105 l0 -185 100 0 c55 0 100 -4 100 -9 0 -4 24 -14 53 -20
170 -39 210 -38 229 4 9 20 18 25 50 25 l38 0 0 185 0 185 -285 0 -285 0 0
-185z m270 145 c0 -5 -7 -10 -15 -10 -9 0 -18 -7 -22 -16 -3 -9 -29 -27 -58
-39 -28 -13 -65 -39 -83 -59 -17 -20 -34 -36 -37 -36 -3 0 -5 38 -5 85 l0 85
110 0 c67 0 110 -4 110 -10z m263 -89 c8 -100 -2 -209 -18 -201 -10 5 -10 36
1 108 9 60 -23 90 -106 97 -8 1 -32 5 -52 9 -34 6 -38 10 -38 38 0 24 -3 29
-16 24 -14 -5 -15 -4 -4 9 11 13 33 15 119 13 l106 -3 8 -94z m-240 22 c13
-13 -32 -34 -50 -24 -13 6 -24 5 -36 -4 -10 -7 -14 -15 -10 -17 4 -3 2 -3 -6
-1 -15 4 -41 -14 -41 -29 0 -6 8 -7 17 -4 15 6 16 5 1 -11 -8 -10 -18 -25 -22
-33 -3 -8 -4 -2 0 14 4 25 3 28 -9 17 -22 -17 -28 -51 -10 -51 23 0 9 -25 -16
-28 -27 -4 -51 14 -51 39 0 28 69 99 115 120 40 18 106 25 118 12z m145 -46
c32 -9 42 -16 42 -32 0 -15 2 -17 9 -6 6 9 11 10 15 2 4 -6 4 -15 1 -21 -3 -5
-11 -38 -16 -72 -6 -34 -17 -77 -26 -95 -14 -30 -20 -33 -57 -33 -68 0 -225
42 -293 78 -33 17 -46 39 -17 28 11 -4 25 5 43 25 64 77 133 143 139 133 10
-15 42 -25 42 -14 0 6 -5 10 -11 10 -5 0 -7 5 -4 11 8 11 62 6 133 -14z m-368
-162 c0 -8 -4 -15 -10 -15 -5 0 -10 7 -10 15 0 8 5 15 10 15 6 0 10 -7 10 -15z"/>
<path d="M6008 4109 c32 -10 44 -29 17 -29 -9 0 -12 -6 -9 -15 4 -8 1 -15 -5
-15 -6 0 -8 -6 -6 -12 2 -7 -2 -21 -9 -31 -13 -17 -20 -17 -73 -7 -83 16 -106
18 -96 10 4 -4 37 -13 72 -19 34 -7 69 -15 77 -18 10 -3 23 13 41 53 39 83 38
94 -6 93 l-36 -1 33 -9z"/>
<path d="M6078 4103 c7 -3 16 -2 19 1 4 3 -2 6 -13 5 -11 0 -14 -3 -6 -6z"/>
<path d="M6075 4006 c-8 -19 -25 -42 -37 -50 -14 -10 -17 -16 -8 -16 7 0 24
10 37 22 18 17 23 18 23 6 0 -18 -25 -41 -49 -45 -25 -5 -150 18 -187 33 -45
19 -79 18 -39 -1 42 -19 151 -47 206 -52 58 -6 71 9 74 82 1 30 0 55 -2 55 -2
0 -10 -15 -18 -34z"/>
<path d="M6111 4004 c0 -11 3 -14 6 -6 3 7 2 16 -1 19 -3 4 -6 -2 -5 -13z"/>
<path d="M1325 4251 c6 -20 -8 -35 -35 -37 -8 -1 -43 -2 -77 -3 -56 -1 -63 -3
-63 -21 0 -11 7 -20 15 -20 18 0 29 -57 22 -111 -4 -33 -2 -39 13 -39 9 0 29
9 43 20 25 19 47 26 47 14 0 -3 -14 -24 -31 -45 -25 -32 -37 -39 -65 -39 -19
0 -34 -4 -34 -10 0 -5 -6 -10 -12 -10 -8 0 -13 -13 -13 -30 l0 -30 133 0 132
0 -1 48 c0 38 -2 43 -9 25 -13 -31 -30 -29 -30 3 0 14 4 23 9 19 6 -3 8 10 5
32 -8 56 -13 66 -28 60 -19 -7 -40 18 -32 38 3 8 13 15 23 15 15 0 18 9 18 57
0 32 -5 64 -12 71 -17 18 -25 15 -18 -7z m-9 -62 c3 -6 2 -14 -3 -18 -6 -3
-14 -16 -17 -29 -9 -28 -49 -72 -66 -72 -19 0 -7 86 15 110 20 22 60 27 71 9z
m-11 -109 c3 -5 -1 -10 -9 -10 -9 0 -16 5 -16 10 0 6 4 10 9 10 6 0 13 -4 16
-10z m-85 -29 c0 -5 -7 -11 -14 -14 -10 -4 -13 -1 -9 9 6 15 23 19 23 5z m86
-47 c-3 -7 -1 -16 4 -19 6 -4 10 -15 10 -26 0 -17 -7 -19 -76 -19 -47 0 -73 4
-69 10 3 6 23 10 43 11 20 1 48 5 62 9 24 8 24 8 3 9 -27 1 -29 8 -7 32 18 20
39 15 30 -7z"/>
<path d="M5376 4137 c3 -10 9 -15 12 -12 3 3 0 11 -7 18 -10 9 -11 8 -5 -6z"/>
<path d="M1361 4104 c0 -11 3 -14 6 -6 3 7 2 16 -1 19 -3 4 -6 -2 -5 -13z"/>
<path d="M1595 4069 c-4 -6 -5 -12 -2 -15 2 -3 7 2 10 11 7 17 1 20 -8 4z"/>
<path d="M5436 4067 c3 -10 9 -15 12 -12 3 3 0 11 -7 18 -10 9 -11 8 -5 -6z"/>
<path d="M1773 4043 c15 -2 39 -2 55 0 15 2 2 4 -28 4 -30 0 -43 -2 -27 -4z"/>
<path d="M1703 4033 c9 -2 23 -2 30 0 6 3 -1 5 -18 5 -16 0 -22 -2 -12 -5z"/>
<path d="M1873 4033 c9 -2 23 -2 30 0 6 3 -1 5 -18 5 -16 0 -22 -2 -12 -5z"/>
<path d="M1928 4023 c7 -3 16 -2 19 1 4 3 -2 6 -13 5 -11 0 -14 -3 -6 -6z"/>
<path d="M1540 4000 c0 -5 5 -10 11 -10 5 0 7 5 4 10 -3 6 -8 10 -11 10 -2 0
-4 -4 -4 -10z"/>
<path d="M1968 4003 c7 -3 16 -2 19 1 4 3 -2 6 -13 5 -11 0 -14 -3 -6 -6z"/>
<path d="M1812 3968 c0 -31 1 -31 9 -9 6 14 6 28 1 33 -5 5 -9 -5 -10 -24z"/>
<path d="M2037 3969 c7 -7 15 -10 18 -7 3 3 -2 9 -12 12 -14 6 -15 5 -6 -5z"/>
<path d="M1852 3950 c-7 -12 -8 -20 -2 -20 5 0 10 -7 10 -15 0 -8 5 -15 10
-15 7 0 8 6 1 17 -6 11 -6 24 0 35 13 25 -3 23 -19 -2z"/>
<path d="M1496 3933 c-6 -14 -5 -15 5 -6 7 7 10 15 7 18 -3 3 -9 -2 -12 -12z"/>
<path d="M1900 3939 c0 -5 5 -7 10 -4 6 3 10 8 10 11 0 2 -4 4 -10 4 -5 0 -10
-5 -10 -11z"/>
<path d="M2075 3940 c3 -4 14 -10 25 -13 11 -3 18 -2 15 3 -3 4 -14 10 -25 13
-11 3 -18 2 -15 -3z"/>
<path d="M5530 3941 c0 -6 4 -13 10 -16 6 -3 7 1 4 9 -7 18 -14 21 -14 7z"/>
<path d="M1593 3895 c0 -27 2 -38 4 -22 2 15 2 37 0 50 -2 12 -4 0 -4 -28z"/>
<path d="M5190 3930 c36 -4 88 -8 115 -7 47 0 46 0 -15 7 -36 4 -87 8 -115 7
-47 0 -46 0 15 -7z"/>
<path d="M1940 3904 c-6 -14 -10 -30 -10 -35 0 -5 -5 -9 -11 -9 -8 0 -8 -5 1
-15 19 -22 37 -18 44 10 4 14 15 29 26 33 17 6 16 9 -11 24 -29 17 -30 17 -39
-8z m30 -12 c0 -5 -7 -17 -15 -28 -15 -19 -20 -8 -9 20 6 17 24 22 24 8z"/>
<path d="M5043 3923 c15 -2 39 -2 55 0 15 2 2 4 -28 4 -30 0 -43 -2 -27 -4z"/>
<path d="M1465 3899 c-4 -6 -5 -12 -2 -15 2 -3 7 2 10 11 7 17 1 20 -8 4z"/>
<path d="M4960 3900 c-11 -8 -7 -9 15 -4 37 8 45 14 19 14 -10 0 -26 -5 -34
-10z"/>
<path d="M5350 3900 c-18 -12 -2 -12 25 0 13 6 15 9 5 9 -8 0 -22 -4 -30 -9z"/>
<path d="M2024 3846 c-7 -30 10 -56 35 -55 10 0 8 3 -7 10 -14 5 -22 16 -20
25 4 21 34 41 45 31 4 -5 1 -12 -7 -17 -12 -8 -12 -10 3 -10 30 0 16 35 -15
38 -22 3 -29 -2 -34 -22z"/>
<path d="M4886 3855 c7 -18 8 -18 -33 -6 -24 7 -35 6 -44 -5 -10 -12 -9 -13 7
-8 17 6 16 4 -4 -18 -19 -21 -21 -27 -8 -37 8 -6 25 -9 38 -6 20 5 24 11 20
36 -4 24 -1 28 13 23 11 -5 15 -15 12 -30 -2 -13 1 -25 7 -27 7 -3 11 12 11
44 0 32 -4 49 -12 49 -7 0 -10 -7 -7 -15z m-43 -66 c-17 -17 -37 -1 -22 17 8
10 15 12 23 4 7 -7 7 -13 -1 -21z"/>
<path d="M5454 3860 c-13 -13 -5 -80 8 -80 7 0 9 16 5 39 -4 32 -1 41 12 44
13 4 13 5 1 6 -9 0 -20 -3 -26 -9z"/>
<path d="M1790 3851 c0 -5 7 -12 16 -15 14 -5 15 -4 4 9 -14 17 -20 19 -20 6z"/>
<path d="M5518 3852 c-10 -2 -18 -11 -18 -19 0 -14 2 -14 18 0 10 10 21 14 25
11 3 -4 -5 -15 -18 -26 -36 -28 -32 -48 8 -47 30 2 30 2 5 6 -34 5 -37 23 -4
23 17 0 25 7 28 24 5 26 -11 36 -44 28z"/>
<path d="M4938 3815 c2 -19 8 -35 14 -35 13 0 6 63 -8 67 -6 2 -8 -10 -6 -32z"/>
<path d="M4990 3840 c0 -5 11 -20 25 -34 14 -14 25 -20 25 -14 0 6 -11 21 -25
34 -14 13 -25 19 -25 14z"/>
<path d="M5042 3843 c10 -2 21 -15 24 -29 3 -13 11 -24 16 -24 5 0 7 6 4 13
-3 6 -9 20 -12 30 -4 9 -16 16 -28 16 -17 -1 -17 -2 -4 -6z"/>
<path d="M5100 3838 c0 -7 9 -24 20 -38 11 -14 20 -20 19 -15 0 6 -6 19 -14
29 -8 10 -12 23 -9 27 3 5 0 9 -5 9 -6 0 -11 -6 -11 -12z"/>
<path d="M5240 3841 c0 -8 -7 -11 -20 -8 -16 4 -20 0 -20 -18 0 -29 27 -53 41
-37 5 7 6 10 3 7 -8 -6 -34 14 -34 26 0 4 11 9 25 11 19 2 22 6 15 18 -8 12
-10 12 -10 1z"/>
<path d="M5278 3845 c-7 -7 3 -65 12 -65 4 0 10 16 12 35 4 31 -8 46 -24 30z"/>
<path d="M5330 3835 c7 -8 10 -24 7 -35 -3 -12 0 -20 7 -20 8 0 11 12 8 35 -3
23 -9 35 -19 35 -13 0 -13 -3 -3 -15z"/>
<path d="M5394 3815 c1 -19 6 -37 12 -39 7 -3 10 9 9 32 -3 47 -22 54 -21 7z"/>
<path d="M1602 3820 c0 -14 2 -19 5 -12 2 6 2 18 0 25 -3 6 -5 1 -5 -13z"/>
<path d="M1761 3831 c-7 -5 -10 -14 -7 -20 11 -17 22 -13 22 9 0 11 0 20 -1
20 0 0 -6 -4 -14 -9z"/>
<path d="M1396 3803 c-6 -14 -5 -15 5 -6 7 7 10 15 7 18 -3 3 -9 -2 -12 -12z"/>
<path d="M1732 3775 c-6 -14 -7 -25 -2 -25 9 0 25 39 18 46 -3 2 -10 -7 -16
-21z"/>
<path d="M4990 3780 c0 -6 7 -10 15 -10 8 0 15 2 15 4 0 2 -7 6 -15 10 -8 3
-15 1 -15 -4z"/>
<path d="M1763 3755 c-6 -14 -7 -23 -3 -20 5 3 10 2 13 -2 2 -5 3 -3 1 3 -4
17 17 34 41 33 20 0 20 0 0 -9 -19 -8 -19 -9 3 -9 35 -1 22 23 -14 27 -23 2
-31 -3 -41 -23z"/>
<path d="M2213 3730 c0 -30 2 -43 4 -27 2 15 2 39 0 55 -2 15 -4 2 -4 -28z"/>
<path d="M5575 3770 c-3 -5 -1 -10 4 -10 6 0 11 5 11 10 0 6 -2 10 -4 10 -3 0
-8 -4 -11 -10z"/>
<path d="M650 3560 l0 -210 155 0 155 0 0 210 0 210 -155 0 -155 0 0 -210z
m30 165 c0 -19 -4 -35 -10 -35 -5 0 -10 16 -10 35 0 19 5 35 10 35 6 0 10 -16
10 -35z m40 0 c0 -19 -4 -35 -10 -35 -5 0 -10 16 -10 35 0 19 5 35 10 35 6 0
10 -16 10 -35z m78 -3 c3 -28 0 -32 -22 -32 -23 0 -26 4 -26 35 0 31 3 34 23
31 17 -2 23 -11 25 -34z m42 3 c0 -19 -4 -35 -10 -35 -5 0 -10 16 -10 35 0 19
5 35 10 35 6 0 10 -16 10 -35z m40 0 c0 -19 -4 -35 -10 -35 -5 0 -10 16 -10
35 0 19 5 35 10 35 6 0 10 -16 10 -35z m30 0 c0 -19 -4 -35 -10 -35 -5 0 -10
16 -10 35 0 19 5 35 10 35 6 0 10 -16 10 -35z m40 0 c0 -19 -4 -35 -10 -35 -5
0 -10 16 -10 35 0 19 5 35 10 35 6 0 10 -16 10 -35z m-270 -90 c0 -25 -4 -45
-10 -45 -11 0 -14 73 -3 83 11 12 13 8 13 -38z m40 0 c0 -25 -4 -45 -10 -45
-11 0 -14 73 -3 83 11 12 13 8 13 -38z m78 -3 c3 -39 1 -42 -22 -42 -24 0 -26
4 -26 43 0 39 2 43 23 42 18 -1 22 -8 25 -43z m42 -3 c0 -21 -4 -39 -10 -39
-5 0 -10 21 -10 46 0 27 4 43 10 39 6 -3 10 -24 10 -46z m70 0 c0 -21 -4 -39
-10 -39 -5 0 -10 21 -10 46 0 27 4 43 10 39 6 -3 10 -24 10 -46z m-30 1 c0
-22 -4 -40 -10 -40 -5 0 -10 18 -10 40 0 22 5 40 10 40 6 0 10 -18 10 -40z
m70 0 c0 -22 -4 -40 -10 -40 -5 0 -10 18 -10 40 0 22 5 40 10 40 6 0 10 -18
10 -40z m-270 -90 c0 -22 -4 -40 -10 -40 -11 0 -14 63 -3 73 11 12 13 8 13
-33z m40 0 c0 -22 -4 -40 -10 -40 -11 0 -14 63 -3 73 11 12 13 8 13 -33z m75
0 c0 -27 -4 -34 -22 -35 -20 -1 -23 3 -23 35 0 32 3 36 23 35 18 -1 22 -8 22
-35z m45 -6 c0 -19 -4 -34 -10 -34 -5 0 -10 18 -10 41 0 24 4 38 10 34 6 -3
10 -22 10 -41z m40 6 c0 -22 -4 -40 -10 -40 -5 0 -10 18 -10 40 0 22 5 40 10
40 6 0 10 -18 10 -40z m30 -6 c0 -19 -4 -34 -10 -34 -5 0 -10 18 -10 41 0 24
4 38 10 34 6 -3 10 -22 10 -41z m40 6 c0 -22 -4 -40 -10 -40 -5 0 -10 18 -10
40 0 22 5 40 10 40 6 0 10 -18 10 -40z m-270 -115 c0 -37 -4 -65 -10 -65 -6 0
-10 28 -10 65 0 37 4 65 10 65 6 0 10 -28 10 -65z m40 0 c0 -37 -4 -65 -10
-65 -6 0 -10 28 -10 65 0 37 4 65 10 65 6 0 10 -28 10 -65z m75 0 c0 -52 -2
-58 -22 -61 -22 -4 -23 -1 -23 61 0 62 1 65 23 61 20 -3 22 -9 22 -61z m45 0
c0 -37 -4 -65 -10 -65 -6 0 -10 28 -10 65 0 37 4 65 10 65 6 0 10 -28 10 -65z
m40 0 c0 -37 -4 -65 -10 -65 -6 0 -10 28 -10 65 0 37 4 65 10 65 6 0 10 -28
10 -65z m30 0 c0 -37 -4 -65 -10 -65 -6 0 -10 28 -10 65 0 37 4 65 10 65 6 0
10 -28 10 -65z m40 0 c0 -37 -4 -65 -10 -65 -6 0 -10 28 -10 65 0 37 4 65 10
65 6 0 10 -28 10 -65z"/>
<path d="M6365 3763 c-38 -9 -42 -26 -4 -20 35 5 35 5 48 -41 7 -26 21 -75 33
-110 11 -35 18 -65 16 -66 -9 -7 -67 -25 -96 -31 -17 -4 -53 -18 -78 -31 -26
-14 -48 -23 -49 -22 -15 18 -27 61 -39 134 -8 49 -18 97 -21 107 -4 9 -3 17 1
18 5 0 41 9 79 20 66 18 67 19 21 14 -27 -3 -66 -10 -87 -15 l-39 -11 0 -59
c0 -33 6 -79 14 -102 8 -24 18 -64 21 -90 5 -31 12 -48 21 -48 8 0 14 -9 14
-19 0 -17 25 -40 100 -91 12 -8 42 -30 66 -48 43 -32 44 -32 71 -15 30 19 175
124 183 133 3 3 17 13 33 23 42 27 33 97 -12 97 -12 0 -13 -2 -3 -8 16 -11 6
-39 -16 -47 -10 -3 -31 -17 -47 -32 -68 -62 -140 -103 -180 -103 -29 0 -116
53 -154 94 -20 21 -22 28 -11 41 7 8 18 15 24 15 6 0 23 7 38 14 15 8 30 11
33 6 3 -4 -13 -17 -35 -27 -22 -10 -40 -21 -40 -25 0 -3 18 -21 41 -39 l41
-32 45 22 c41 20 47 20 62 6 23 -20 28 -19 69 12 33 25 34 27 16 40 -16 12
-17 15 -4 23 8 5 22 10 30 10 11 0 9 4 -5 12 -19 12 -19 12 5 20 16 4 9 5 -20
2 -33 -4 -41 -2 -30 5 12 9 11 11 -7 11 -30 0 -49 31 -72 120 -38 146 -36 142
-76 133z m32 -279 c-3 -3 -12 -4 -19 -1 -8 3 -5 6 6 6 11 1 17 -2 13 -5z m268
-74 c-12 -13 -22 -17 -28 -11 -13 13 2 34 19 27 8 -3 14 0 14 6 0 6 3 8 7 5 3
-4 -2 -16 -12 -27z m-35 -24 c0 -2 -7 -7 -16 -10 -8 -3 -12 -2 -9 4 6 10 25
14 25 6z m-36 -24 c2 -4 -4 -13 -15 -20 -15 -10 -19 -10 -19 1 0 24 23 36 34
19z m-137 -78 c-3 -3 -12 -4 -19 -1 -8 3 -5 6 6 6 11 1 17 -2 13 -5z"/>
<path d="M5500 3738 c0 -4 14 -8 30 -8 17 0 30 2 30 4 0 2 -13 6 -30 8 -16 3
-30 1 -30 -4z"/>
<path d="M1856 3724 c-9 -23 -7 -44 4 -44 5 0 7 7 3 16 -6 17 12 34 36 34 11
0 11 -3 1 -15 -10 -12 -10 -15 4 -15 10 0 15 -7 13 -21 -1 -12 3 -24 9 -26 6
-2 10 7 10 19 -1 17 5 24 22 26 28 4 29 -21 2 -48 l-20 -20 20 0 c12 0 20 7
20 18 0 10 6 26 13 37 20 29 28 55 17 55 -6 0 -10 -7 -10 -15 0 -11 -11 -15
-39 -15 -25 0 -41 5 -45 15 -7 20 -52 19 -60 -1z"/>
<path d="M5198 3725 c-7 -7 3 -108 12 -118 4 -5 6 20 4 54 -4 63 -6 73 -16 64z"/>
<path d="M6305 3713 c-100 -29 -121 -42 -95 -58 6 -3 10 -2 10 4 0 10 44 26
101 36 l37 7 12 -52 c7 -28 10 -62 7 -75 -3 -19 0 -25 14 -25 11 0 19 -5 19
-12 0 -9 3 -9 12 0 8 8 7 25 -6 69 -43 142 -30 130 -111 106z"/>
<path d="M4733 3650 c0 -36 2 -50 4 -32 2 17 2 47 0 65 -2 17 -4 3 -4 -33z"/>
<path d="M5621 3648 c1 -68 6 -61 11 15 2 26 0 47 -4 47 -5 0 -7 -28 -7 -62z"/>
<path d="M5126 3674 c-5 -13 -4 -14 7 -6 10 9 17 8 26 -1 11 -10 13 -9 9 3 -7
21 -34 24 -42 4z"/>
<path d="M5380 3680 c0 -6 5 -10 11 -10 7 0 10 -12 7 -30 -3 -18 0 -30 7 -30
16 0 6 67 -11 74 -8 3 -14 1 -14 -4z"/>
<path d="M4868 3675 c-6 -7 3 -65 11 -65 3 0 6 16 7 35 0 32 -5 42 -18 30z"/>
<path d="M4909 3671 c8 -5 12 -19 9 -35 -3 -14 -1 -26 3 -26 5 0 9 16 9 35 0
27 -4 35 -17 35 -14 0 -15 -2 -4 -9z"/>
<path d="M4958 3645 c2 -19 7 -35 11 -35 4 0 5 16 3 35 -2 19 -7 35 -11 35 -4
0 -5 -16 -3 -35z"/>
<path d="M5068 3668 c-6 -16 3 -58 11 -58 4 0 5 16 3 35 -4 37 -8 43 -14 23z"/>
<path d="M5249 3670 c8 -5 12 -18 9 -34 -4 -21 -1 -26 16 -26 17 0 21 6 21 34
0 30 -3 33 -30 34 -19 0 -25 -2 -16 -8z m28 -42 c-3 -8 -6 -5 -6 6 -1 11 2 17
5 13 3 -3 4 -12 1 -19z"/>
<path d="M5339 3678 c-6 -20 -2 -69 6 -72 6 -2 10 13 10 35 0 22 -3 39 -7 39
-5 0 -8 -1 -9 -2z"/>
<path d="M5480 3671 c0 -8 -7 -11 -20 -8 -16 4 -20 0 -20 -18 0 -29 27 -53 41
-37 5 7 6 10 3 7 -8 -6 -34 14 -34 26 0 4 11 9 25 11 19 2 22 6 15 18 -8 12
-10 12 -10 1z"/>
<path d="M1878 3663 c7 -3 16 -2 19 1 4 3 -2 6 -13 5 -11 0 -14 -3 -6 -6z"/>
<path d="M2201 3663 c0 -4 4 -17 9 -28 8 -19 9 -19 9 2 1 12 -3 25 -9 28 -5 3
-10 3 -9 -2z"/>
<path d="M5747 3649 c4 -13 8 -18 11 -10 2 7 -1 18 -6 23 -8 8 -9 4 -5 -13z"/>
<path d="M5110 3641 c0 -10 39 -46 43 -40 2 2 -7 14 -20 26 -13 12 -23 19 -23
14z"/>
<path d="M1797 3629 c7 -7 15 -10 18 -7 3 3 -2 9 -12 12 -14 6 -15 5 -6 -5z"/>
<path d="M5030 3626 c0 -8 7 -17 16 -20 13 -5 14 -4 6 7 -7 8 -9 17 -5 20 3 4
1 7 -5 7 -7 0 -12 -6 -12 -14z"/>
<path d="M6217 3585 c6 -67 16 -94 27 -76 4 6 2 11 -3 11 -6 0 -12 15 -12 33
-1 17 -5 46 -10 62 -5 20 -6 10 -2 -30z"/>
<path d="M1840 3610 c-13 -8 -12 -10 3 -10 9 0 17 5 17 10 0 12 -1 12 -20 0z"/>
<path d="M5786 3597 c3 -10 9 -15 12 -12 3 3 0 11 -7 18 -10 9 -11 8 -5 -6z"/>
<path d="M1878 3593 c6 -2 18 -2 25 0 6 3 1 5 -13 5 -14 0 -19 -2 -12 -5z"/>
<path d="M2108 3593 c7 -3 16 -2 19 1 4 3 -2 6 -13 5 -11 0 -14 -3 -6 -6z"/>
<path d="M1963 3583 c26 -2 67 -2 90 0 23 2 2 3 -48 3 -49 0 -68 -1 -42 -3z"/>
<path d="M2241 3564 c0 -11 3 -14 6 -6 3 7 2 16 -1 19 -3 4 -6 -2 -5 -13z"/>
<path d="M4750 3575 c0 -5 5 -17 10 -25 5 -8 10 -10 10 -5 0 6 -5 17 -10 25
-5 8 -10 11 -10 5z"/>
<path d="M5606 3565 c-9 -26 -7 -32 5 -12 6 10 9 21 6 23 -2 3 -7 -2 -11 -11z"/>
<path d="M1185 3529 c-4 -6 -5 -12 -2 -15 2 -3 7 2 10 11 7 17 1 20 -8 4z"/>
<path d="M1303 3530 c-13 -5 -23 -14 -23 -19 0 -5 11 -4 25 2 14 7 25 15 25
20 0 8 2 8 -27 -3z"/>
<path d="M1373 3533 c9 -2 25 -2 35 0 9 3 1 5 -18 5 -19 0 -27 -2 -17 -5z"/>
<path d="M5055 3521 c4 -15 1 -20 -16 -23 -54 -8 -48 -70 7 -76 l29 -3 -3 61
c-2 33 -8 60 -14 60 -5 0 -7 -9 -3 -19z m3 -64 c2 -18 -1 -27 -11 -27 -21 0
-40 27 -33 46 10 25 41 12 44 -19z"/>
<path d="M5840 3531 c0 -6 4 -13 10 -16 6 -3 7 1 4 9 -7 18 -14 21 -14 7z"/>
<path d="M1488 3523 c7 -3 16 -2 19 1 4 3 -2 6 -13 5 -11 0 -14 -3 -6 -6z"/>
<path d="M6378 3523 c7 -3 16 -2 19 1 4 3 -2 6 -13 5 -11 0 -14 -3 -6 -6z"/>
<path d="M2271 3494 c0 -11 3 -14 6 -6 3 7 2 16 -1 19 -3 4 -6 -2 -5 -13z"/>
<path d="M5268 3505 c-3 -3 -2 -22 1 -42 5 -27 12 -39 26 -41 18 -2 19 -2 3 8
-20 12 -24 45 -8 55 6 4 8 11 5 16 -7 10 -19 12 -27 4z"/>
<path d="M4920 3491 c0 -5 9 -7 20 -4 11 3 20 0 20 -6 0 -6 -4 -11 -10 -11 -5
0 -19 -10 -30 -22 -20 -22 -20 -23 -1 -29 10 -4 27 -5 38 -3 15 4 18 13 15 45
-4 33 -7 39 -28 39 -13 0 -24 -4 -24 -9z m40 -46 c0 -8 -7 -15 -15 -15 -16 0
-20 12 -8 23 11 12 23 8 23 -8z"/>
<path d="M5106 3491 c-4 -5 2 -7 12 -4 15 4 19 -1 20 -26 0 -22 -4 -31 -15
-31 -9 0 -13 6 -9 15 3 8 1 15 -4 15 -6 0 -10 -9 -10 -20 0 -16 7 -20 37 -20
29 0 34 3 25 12 -7 7 -12 25 -12 40 0 21 -5 28 -19 28 -11 0 -22 -4 -25 -9z"/>
<path d="M5175 3490 c-3 -5 -1 -11 5 -15 14 -9 12 -67 -3 -87 -7 -9 -31 -18
-53 -20 -21 -2 6 -4 61 -4 55 0 87 2 70 4 -53 7 -77 46 -32 55 l22 4 -23 2
c-19 1 -23 6 -20 29 4 34 30 36 40 2 6 -23 7 -23 5 5 -2 26 -6 30 -34 32 -18
1 -35 -3 -38 -7z"/>
<path d="M5353 3494 c24 -8 21 -27 -4 -21 -17 5 -20 1 -17 -21 2 -20 9 -28 28
-29 25 -3 25 -3 3 7 -29 12 -30 30 -2 30 27 0 22 34 -6 37 -16 1 -16 1 -2 -3z"/>
<path d="M5409 3498 c0 -2 -1 -22 -3 -45 -2 -45 11 -55 44 -33 12 8 11 10 -7
10 -27 0 -31 30 -7 54 14 15 14 16 -5 16 -12 0 -21 -1 -22 -2z"/>
<path d="M5877 3480 c3 -11 9 -22 13 -25 5 -3 6 4 3 15 -3 11 -9 22 -13 25 -5
3 -6 -4 -3 -15z"/>
<path d="M6615 3460 c3 -5 8 -10 11 -10 2 0 4 5 4 10 0 6 -5 10 -11 10 -5 0
-7 -4 -4 -10z"/>
<path d="M1553 3445 c4 -8 2 -17 -3 -20 -6 -3 -15 -16 -21 -28 -6 -12 2 -7 19
13 36 40 39 50 16 50 -10 0 -14 -6 -11 -15z"/>
<path d="M6578 3443 c7 -3 16 -2 19 1 4 3 -2 6 -13 5 -11 0 -14 -3 -6 -6z"/>
<path d="M1261 3424 c0 -11 3 -14 6 -6 3 7 2 16 -1 19 -3 4 -6 -2 -5 -13z"/>
<path d="M1685 3430 c3 -5 11 -10 16 -10 6 0 7 5 4 10 -3 6 -11 10 -16 10 -6
0 -7 -4 -4 -10z"/>
<path d="M2296 3425 c-3 -8 -1 -15 4 -15 6 0 10 7 10 15 0 8 -2 15 -4 15 -2 0
-6 -7 -10 -15z"/>
<path d="M4860 3429 c0 -5 5 -7 10 -4 6 3 10 8 10 11 0 2 -4 4 -10 4 -5 0 -10
-5 -10 -11z"/>
<path d="M5916 3427 c3 -10 9 -15 12 -12 3 3 0 11 -7 18 -10 9 -11 8 -5 -6z"/>
<path d="M1720 3411 c0 -5 5 -13 10 -16 6 -3 10 -2 10 4 0 5 -4 13 -10 16 -5
3 -10 2 -10 -4z"/>
<path d="M1086 3393 c-6 -14 -5 -15 5 -6 7 7 10 15 7 18 -3 3 -9 -2 -12 -12z"/>
<path d="M1572 3383 c-14 -27 -3 -43 26 -42 25 2 25 2 4 6 -19 4 -23 9 -18 29
7 28 1 32 -12 7z"/>
<path d="M1626 3384 c-4 -9 -4 -19 -1 -22 2 -3 7 3 11 12 4 9 4 19 1 22 -2 3
-7 -3 -11 -12z"/>
<path d="M4980 3390 c25 -8 107 -13 99 -6 -2 2 -31 6 -64 9 -37 3 -51 2 -35
-3z"/>
<path d="M4832 3370 c0 -14 2 -19 5 -12 2 6 2 18 0 25 -3 6 -5 1 -5 -13z"/>
<path d="M5308 3383 c12 -2 30 -2 40 0 9 3 -1 5 -23 4 -22 0 -30 -2 -17 -4z"/>
<path d="M1055 3359 c-4 -6 -5 -12 -2 -15 2 -3 7 2 10 11 7 17 1 20 -8 4z"/>
<path d="M1275 3360 c3 -5 8 -10 11 -10 2 0 4 5 4 10 0 6 -5 10 -11 10 -5 0
-7 -4 -4 -10z"/>
<path d="M1348 3363 c7 -3 16 -2 19 1 4 3 -2 6 -13 5 -11 0 -14 -3 -6 -6z"/>
<path d="M1670 3351 c0 -11 5 -23 12 -27 7 -5 5 -11 -7 -21 -11 -7 -14 -13 -8
-13 20 0 37 30 25 42 -16 16 -15 28 1 28 7 0 18 -9 25 -20 7 -12 17 -18 23
-15 12 8 -33 45 -55 45 -9 0 -16 -8 -16 -19z"/>
<path d="M2321 3354 c0 -11 3 -14 6 -6 3 7 2 16 -1 19 -3 4 -6 -2 -5 -13z"/>
<path d="M1801 3343 c7 -10 15 -20 16 -22 2 -2 3 3 3 11 0 9 -7 19 -16 22 -15
6 -15 4 -3 -11z"/>
<path d="M5583 3353 c9 -2 25 -2 35 0 9 3 1 5 -18 5 -19 0 -27 -2 -17 -5z"/>
<path d="M5678 3353 c7 -3 16 -2 19 1 4 3 -2 6 -13 5 -11 0 -14 -3 -6 -6z"/>
<path d="M1320 3339 c0 -5 5 -7 10 -4 6 3 10 8 10 11 0 2 -4 4 -10 4 -5 0 -10
-5 -10 -11z"/>
<path d="M1363 3334 c-7 -7 -13 -18 -13 -23 0 -5 -7 -11 -16 -13 -14 -3 -13
-7 6 -31 24 -31 40 -28 40 8 0 13 10 31 22 39 12 9 17 16 10 16 -6 0 -21 -9
-32 -20 -22 -22 -25 -19 -9 12 13 24 9 31 -8 12z"/>
<path d="M5475 3339 c-11 -16 -2 -17 25 -2 24 12 24 13 3 13 -12 0 -25 -5 -28
-11z"/>
<path d="M5715 3340 c3 -5 8 -10 11 -10 2 0 4 5 4 10 0 6 -5 10 -11 10 -5 0
-7 -4 -4 -10z"/>
<path d="M6395 3339 c-12 -19 5 -23 22 -6 16 16 16 17 1 17 -9 0 -20 -5 -23
-11z"/>
<path d="M1290 3332 c0 -12 19 -26 26 -19 2 2 -2 10 -11 17 -9 8 -15 8 -15 2z"/>
<path d="M1460 3330 c0 -5 -7 -10 -16 -10 -11 0 -14 -5 -10 -16 3 -9 -4 -25
-19 -40 -20 -20 -21 -24 -7 -24 10 0 23 12 29 28 7 15 20 37 29 50 10 13 12
22 5 22 -6 0 -11 -4 -11 -10z"/>
<path d="M4821 3324 c0 -11 3 -14 6 -6 3 7 2 16 -1 19 -3 4 -6 -2 -5 -13z"/>
<path d="M5770 3329 c0 -5 5 -9 10 -9 6 0 10 -6 9 -12 -5 -41 3 -118 12 -118
6 0 9 21 8 55 -1 30 0 58 4 62 13 12 7 21 -18 25 -14 3 -25 1 -25 -3z"/>
<path d="M2340 3314 c0 -10 5 -26 10 -34 8 -11 9 -7 4 15 -8 37 -14 45 -14 19z"/>
<path d="M1705 3299 c-4 -6 -5 -12 -2 -15 2 -3 7 2 10 11 7 17 1 20 -8 4z"/>
<path d="M2930 3293 c8 -3 17 -9 20 -12 11 -13 51 -31 67 -30 14 0 15 2 3 6
-8 3 -26 14 -39 24 -13 11 -33 19 -45 18 -15 0 -16 -2 -6 -6z"/>
<path d="M4176 3276 c3 -9 1 -16 -5 -16 -15 0 -71 -41 -71 -53 0 -4 13 1 29
12 15 11 30 19 32 17 2 -2 12 4 22 14 16 15 16 18 2 30 -13 11 -14 10 -9 -4z"/>
<path d="M5890 3275 c7 -9 15 -13 17 -11 7 7 -7 26 -19 26 -6 0 -6 -6 2 -15z"/>
<path d="M1498 3263 c7 -3 16 -2 19 1 4 3 -2 6 -13 5 -11 0 -14 -3 -6 -6z"/>
<path d="M4791 3254 c0 -11 3 -14 6 -6 3 7 2 16 -1 19 -3 4 -6 -2 -5 -13z"/>
<path d="M5316 3257 c-11 -8 -17 -18 -15 -23 2 -5 15 1 28 14 26 24 16 30 -13
9z"/>
<path d="M5437 3263 c-20 -19 1 -73 28 -73 5 0 2 5 -7 11 -24 14 -23 39 2 39
11 0 20 7 20 15 0 15 -31 21 -43 8z m30 -9 c-3 -3 -12 -4 -19 -1 -8 3 -5 6 6
6 11 1 17 -2 13 -5z"/>
<path d="M5509 3268 c-5 -24 -4 -78 3 -78 4 0 8 11 8 24 0 13 3 31 6 40 3 9 1
16 -5 16 -6 0 -11 -1 -12 -2z"/>
<path d="M5548 3230 c2 -22 7 -38 11 -36 9 6 5 70 -5 73 -5 2 -8 -15 -6 -37z"/>
<path d="M5589 3262 c8 -6 12 -20 9 -36 -3 -15 -1 -29 4 -32 5 -4 8 10 6 32
-2 23 -9 39 -18 41 -12 4 -13 3 -1 -5z"/>
<path d="M5655 3260 c-3 -6 1 -7 9 -4 18 7 21 14 7 14 -6 0 -13 -4 -16 -10z"/>
<path d="M5694 3263 c4 -7 2 -13 -5 -13 -8 0 -8 -4 1 -15 9 -11 10 -19 2 -27
-12 -12 -35 -1 -27 13 4 5 1 9 -5 9 -6 0 -10 -8 -8 -17 3 -14 14 -18 55 -18
l51 0 -5 35 c-7 43 -10 47 -25 32 -9 -9 -9 -12 1 -12 7 0 11 -9 9 -22 -4 -31
-22 -29 -26 2 -2 14 -8 30 -14 35 -8 7 -9 6 -4 -2z"/>
<path d="M1518 3238 c-10 -10 -18 -22 -18 -28 0 -5 -6 -10 -12 -10 -7 0 -2 -7
11 -16 21 -15 21 -18 7 -26 -9 -5 -21 -6 -26 -3 -6 3 -10 2 -10 -3 0 -5 8 -12
18 -14 14 -4 26 7 46 40 25 41 29 44 43 29 19 -19 11 -45 -19 -57 -16 -6 -18
-9 -6 -9 18 -1 48 24 48 40 0 6 7 6 19 -1 25 -13 31 -13 31 0 0 6 -7 10 -16
10 -9 0 -27 9 -41 20 -14 11 -32 20 -39 20 -7 0 -14 6 -16 13 -2 9 -8 8 -20
-5z m13 -41 c-16 -16 -26 0 -10 19 9 11 15 12 17 4 2 -6 -1 -17 -7 -23z"/>
<path d="M2370 3244 c0 -10 5 -26 10 -34 8 -11 9 -7 4 15 -8 37 -14 45 -14 19z"/>
<path d="M2900 3250 c0 -5 5 -10 10 -10 6 0 10 5 10 10 0 6 -4 10 -10 10 -5 0
-10 -4 -10 -10z"/>
<path d="M4205 3228 c6 -23 1 -29 -35 -51 -23 -13 -38 -27 -32 -30 12 -8 92
51 92 68 0 7 -7 18 -16 26 -13 11 -14 9 -9 -13z"/>
<path d="M956 3223 c-6 -14 -5 -15 5 -6 7 7 10 15 7 18 -3 3 -9 -2 -12 -12z"/>
<path d="M5940 3231 c0 -5 5 -13 10 -16 6 -3 10 -2 10 4 0 5 -4 13 -10 16 -5
3 -10 2 -10 -4z"/>
<path d="M2950 3219 c0 -4 6 -11 13 -18 10 -8 17 -7 25 1 18 18 15 23 -13 23
-14 0 -25 -3 -25 -6z"/>
<path d="M4770 3215 c0 -8 4 -15 10 -15 5 0 7 7 4 15 -4 8 -8 15 -10 15 -2 0
-4 -7 -4 -15z"/>
<path d="M1405 3200 c10 -11 23 -20 28 -20 6 0 2 9 -8 20 -10 11 -23 20 -28
20 -6 0 -2 -9 8 -20z"/>
<path d="M2838 3205 c10 -19 72 -56 117 -70 17 -5 17 -8 -10 -25 -29 -19 -30
-19 -62 1 -18 11 -41 18 -50 16 -17 -4 -17 -5 0 -6 9 0 17 -8 17 -17 0 -8 4
-13 9 -10 10 6 61 -16 61 -26 0 -11 -47 -21 -59 -13 -17 10 -13 -11 4 -25 17
-14 20 -40 5 -40 -6 0 -13 -8 -17 -17 -3 -10 -19 -34 -35 -54 -15 -20 -28 -42
-28 -47 0 -6 -6 -15 -12 -19 -13 -8 -18 -15 -56 -75 -9 -16 -21 -26 -27 -25
-5 2 -16 -2 -23 -10 -20 -19 -49 -16 -73 8 -17 17 -20 18 -17 4 3 -16 34 -38
72 -49 18 -6 18 -7 1 -26 -10 -11 -21 -17 -25 -15 -5 3 -19 -8 -32 -24 -13
-15 -31 -31 -39 -34 -9 -3 -6 -6 8 -6 12 -1 23 5 26 12 2 6 8 8 13 4 5 -5 1
-14 -9 -21 -9 -7 -17 -21 -17 -30 0 -9 -8 -16 -18 -16 -19 0 -42 -18 -42 -33
0 -5 7 -4 15 3 10 9 15 9 15 1 0 -6 -4 -12 -10 -12 -5 -1 -14 -3 -20 -4 -5 -1
-18 -3 -27 -4 -15 -2 -14 -4 4 -11 27 -11 21 -36 -10 -44 -14 -3 -35 4 -59 20
-20 14 -42 23 -48 19 -7 -4 5 -15 29 -27 23 -11 41 -24 41 -29 0 -4 7 -6 15
-3 22 9 18 -4 -13 -45 -16 -20 -32 -44 -35 -53 -7 -21 -27 -24 -27 -5 0 8 -4
7 -10 -3 -6 -10 -13 -11 -17 -5 -5 6 -21 18 -36 28 -15 10 -26 21 -23 25 2 4
-6 8 -19 8 -22 2 -23 1 -7 -15 31 -31 80 -61 100 -61 14 0 24 -10 32 -35 6
-19 16 -35 21 -35 5 0 9 -5 9 -11 0 -6 14 -29 31 -50 17 -21 28 -39 24 -39 -4
0 6 -17 22 -37 17 -21 33 -46 36 -55 4 -10 11 -18 17 -18 5 0 10 -5 10 -11 0
-6 16 -30 35 -53 19 -24 35 -46 35 -51 0 -4 14 -24 30 -45 17 -21 30 -43 30
-48 0 -6 6 -15 13 -19 6 -4 19 -21 27 -38 8 -16 21 -34 27 -38 7 -4 13 -13 13
-19 0 -5 13 -27 28 -47 16 -20 32 -44 35 -53 4 -10 11 -18 17 -18 5 0 10 -6
10 -12 0 -7 15 -29 33 -49 17 -20 37 -44 42 -53 9 -15 58 -17 583 -17 315 0
577 3 583 6 5 4 9 10 9 16 0 5 8 17 18 27 10 10 25 28 34 40 16 24 51 21 41
-4 -4 -10 4 -14 30 -14 19 0 40 -7 47 -15 7 -8 19 -15 26 -15 8 0 14 7 14 15
0 8 5 15 10 15 6 0 10 8 9 18 0 10 -3 12 -6 5 -6 -17 -30 -17 -37 0 -4 6 -4 2
-2 -11 l4 -22 -49 26 c-57 31 -61 50 -24 98 14 18 25 38 25 44 0 7 7 12 15 12
8 0 15 -4 15 -10 0 -5 5 -10 12 -10 6 0 26 -12 45 -26 19 -14 41 -23 48 -20
22 8 18 28 -4 21 -12 -4 -29 5 -51 25 -18 16 -36 30 -41 30 -5 0 -9 5 -9 10 0
6 5 10 10 10 6 0 10 6 10 14 0 23 22 31 32 12 5 -9 14 -16 19 -16 6 0 1 12
-10 26 -13 17 -17 30 -11 37 5 7 20 25 33 41 l23 28 57 -36 c60 -39 72 -42 83
-25 4 7 1 10 -7 7 -8 -3 -30 7 -49 22 -19 15 -43 30 -53 33 -23 9 -15 38 23
87 15 19 35 49 44 65 28 52 41 70 54 78 6 4 12 13 12 18 0 6 16 30 35 53 19
24 35 48 35 55 0 6 4 11 9 11 5 0 13 10 17 23 8 25 40 58 84 83 31 19 35 34
10 42 -7 3 -10 0 -7 -5 4 -6 -12 -23 -34 -38 l-41 -27 -19 21 c-25 27 -24 31
9 31 29 0 72 35 72 59 0 7 -13 -1 -29 -18 -16 -17 -39 -31 -50 -31 -51 0 -33
74 21 88 23 6 28 10 17 14 -22 9 -62 -13 -74 -40 -11 -25 -20 -28 -32 -9 -18
29 -11 44 30 67 53 29 50 27 42 40 -4 7 -20 0 -45 -20 -41 -33 -60 -38 -60
-16 0 8 -6 17 -12 19 -15 6 24 42 55 53 11 3 28 15 38 25 19 19 18 19 -11 19
-17 0 -30 -5 -30 -12 0 -18 -69 -61 -86 -54 -21 8 -17 26 6 26 11 0 20 6 20
13 0 6 14 20 30 29 17 10 30 25 29 35 0 11 -3 13 -6 6 -2 -7 -10 -13 -17 -13
-6 0 -19 -9 -29 -20 -9 -11 -23 -17 -32 -14 -18 7 -20 40 -2 47 7 3 5 6 -6 6
-26 1 -32 -27 -12 -49 10 -11 15 -23 11 -28 -9 -8 -53 41 -65 73 -7 16 -4 21
13 27 l21 6 -21 1 c-43 2 -37 58 7 82 28 15 18 22 -15 9 -14 -5 -31 -22 -37
-37 l-11 -28 -19 25 c-10 14 -23 30 -28 36 -6 7 -8 14 -5 17 2 2 -2 10 -11 17
-8 7 -15 18 -15 25 0 7 -7 15 -15 19 -8 3 -15 12 -15 20 0 8 -7 22 -16 31 -13
12 -13 16 -3 14 19 -4 113 58 100 66 -10 6 -68 -29 -83 -50 -9 -12 -58 14 -58
32 0 7 -7 16 -15 19 -8 4 -15 12 -15 19 0 6 -9 20 -20 30 -11 10 -20 24 -20
32 0 7 -7 16 -15 19 -8 4 -15 11 -15 18 0 6 -9 19 -20 29 -19 16 -65 17 -590
17 -334 0 -570 4 -570 9 0 5 -8 7 -17 5 -10 -3 -30 7 -45 21 -16 14 -28 23
-28 19 0 -3 -7 0 -17 7 -15 13 -15 12 -5 -6z m1252 -155 c11 -11 20 -23 20
-26 0 -3 14 -23 30 -44 17 -21 30 -41 30 -45 0 -5 11 -23 25 -41 14 -18 25
-37 25 -43 0 -6 3 -11 8 -11 4 0 21 -23 37 -50 17 -27 33 -50 38 -50 4 0 7 -5
7 -11 0 -7 16 -31 35 -55 19 -23 35 -47 35 -53 0 -5 6 -14 13 -18 12 -8 25
-26 53 -78 9 -16 30 -46 45 -66 16 -20 29 -40 29 -44 0 -4 14 -24 30 -45 17
-21 30 -43 30 -49 0 -7 7 -14 15 -17 8 -4 15 -12 15 -19 0 -7 -7 -15 -15 -19
-8 -3 -15 -11 -15 -17 0 -7 -16 -31 -35 -55 -19 -23 -35 -45 -35 -49 0 -4 -13
-24 -30 -45 -16 -21 -30 -43 -30 -49 0 -6 -5 -11 -10 -11 -6 0 -13 -8 -17 -17
-3 -10 -19 -35 -36 -55 -16 -21 -26 -38 -22 -38 4 0 -7 -18 -24 -39 -17 -21
-31 -43 -31 -49 0 -6 -3 -12 -7 -14 -5 -2 -21 -23 -38 -48 -16 -25 -36 -49
-42 -53 -7 -4 -13 -13 -13 -19 0 -5 -13 -27 -30 -48 -16 -21 -30 -43 -30 -48
0 -6 -6 -15 -13 -19 -6 -4 -19 -21 -27 -38 -8 -16 -19 -33 -25 -37 -12 -9
-1066 -11 -1089 -2 -9 3 -16 11 -16 16 0 5 -16 29 -35 52 -19 24 -35 47 -35
51 0 5 -11 23 -25 41 -14 18 -25 37 -25 43 0 6 -3 11 -7 11 -5 0 -21 23 -38
50 -16 27 -33 50 -37 50 -5 0 -8 5 -8 11 0 6 -14 29 -31 50 -17 21 -28 39 -24
39 4 0 -7 18 -24 39 -17 21 -31 42 -31 47 0 4 -7 14 -15 23 -23 24 -85 109
-85 116 0 4 -13 24 -30 45 -16 21 -30 43 -30 49 0 7 -7 14 -15 17 -17 7 -21
34 -5 34 6 0 10 5 10 11 0 7 16 31 35 55 19 23 35 45 35 49 0 4 13 24 29 44
15 20 36 50 45 66 28 52 41 70 54 78 6 4 12 13 12 19 0 5 13 27 28 47 16 20
32 44 35 54 4 9 11 17 17 17 5 0 10 5 10 11 0 10 13 29 60 86 6 7 10 15 10 18
0 4 11 21 25 39 14 18 25 36 25 41 0 4 14 24 30 45 17 21 30 41 30 44 0 3 8
15 18 25 16 19 38 19 550 20 519 1 532 1 552 -19z m-1456 -399 c3 -5 -1 -11
-9 -14 -9 -4 -12 -1 -8 9 6 16 10 17 17 5z"/>
<path d="M3341 2401 c-9 -6 -10 -11 -2 -15 15 -10 15 -188 -1 -204 -9 -9 -4
-12 22 -12 26 0 31 3 22 12 -8 8 -12 49 -12 120 0 59 -3 108 -7 108 -5 0 -14
-4 -22 -9z"/>
<path d="M3450 2400 c0 -5 5 -10 10 -10 6 0 10 5 10 10 0 6 -4 10 -10 10 -5 0
-10 -4 -10 -10z"/>
<path d="M3940 2400 c0 -5 7 -10 15 -10 8 0 15 5 15 10 0 6 -7 10 -15 10 -8 0
-15 -4 -15 -10z"/>
<path d="M2840 2370 c-7 -13 -7 -20 0 -20 13 0 42 -70 36 -87 -6 -16 -40 -17
-67 -3 -11 7 -19 7 -19 1 0 -5 -3 -18 -6 -28 -4 -13 -3 -15 4 -5 5 8 29 15 52
15 34 2 46 -2 58 -21 10 -16 11 -26 4 -35 -8 -10 -2 -13 27 -13 36 -1 37 0 21
16 -16 16 -80 169 -80 191 0 16 -19 9 -30 -11z"/>
<path d="M3846 2353 c-4 -13 -12 -23 -19 -23 -8 0 -8 -3 1 -12 7 -7 12 -37 12
-68 0 -57 12 -80 40 -80 13 1 12 3 -2 14 -13 10 -18 28 -18 69 0 43 4 58 18
66 15 9 16 10 0 11 -9 0 -18 10 -20 23 l-4 22 -8 -22z"/>
<path d="M2821 2333 c-1 -6 -4 -20 -7 -30 -5 -17 -5 -17 6 0 6 10 9 23 6 30
-3 9 -5 9 -5 0z"/>
<path d="M3076 2312 c43 -34 38 -113 -8 -132 -18 -7 -19 -9 -5 -9 10 -1 29 10
42 24 35 34 34 86 -1 114 -15 12 -32 21 -38 21 -6 0 -1 -8 10 -18z"/>
<path d="M3246 2312 c43 -34 38 -113 -8 -132 -18 -7 -19 -9 -5 -9 10 -1 29 10
42 24 35 34 34 86 -1 114 -15 12 -32 21 -38 21 -6 0 -1 -8 10 -18z"/>
<path d="M3556 2305 c-31 -28 -34 -72 -8 -104 23 -29 65 -36 85 -13 15 17 15
18 -17 14 -26 -3 -37 1 -50 19 -21 31 -20 62 2 82 25 23 36 21 52 -8 10 -18
17 -22 24 -14 8 7 4 16 -13 30 -30 25 -43 24 -75 -6z"/>
<path d="M3698 2316 c-17 -13 -25 -36 -12 -36 3 0 14 10 24 22 15 19 20 20 34
9 19 -16 21 -41 4 -41 -9 0 -9 -3 1 -9 10 -6 12 -20 8 -45 -5 -29 -2 -36 14
-41 22 -7 42 5 22 12 -9 3 -13 25 -13 63 0 36 -5 62 -12 67 -22 13 -52 13 -70
-1z"/>
<path d="M4036 2305 c-34 -32 -35 -77 -1 -110 13 -14 34 -25 47 -25 l23 0 -25
13 c-53 27 -65 103 -19 128 17 8 25 7 41 -7 15 -15 19 -29 16 -66 -2 -27 0
-48 4 -48 12 0 28 37 28 65 0 29 -43 75 -70 75 -9 0 -29 -11 -44 -25z"/>
<path d="M4260 2320 c0 -5 5 -10 11 -10 8 0 10 -23 7 -69 l-3 -68 28 -1 c20 0
26 3 19 11 -5 7 -12 36 -15 66 -6 51 -20 81 -38 81 -5 0 -9 -4 -9 -10z"/>
<path d="M2990 2310 c-10 -6 -11 -10 -2 -10 9 0 12 -26 12 -94 0 -66 -4 -96
-12 -99 -7 -3 1 -6 17 -6 l30 -1 -3 100 c-2 75 1 100 10 100 9 0 8 3 -2 10 -8
5 -19 10 -25 10 -5 0 -17 -5 -25 -10z"/>
<path d="M3160 2310 c-10 -6 -11 -10 -2 -10 9 0 12 -26 12 -94 0 -66 -4 -96
-12 -99 -7 -3 1 -6 17 -6 l30 -1 -3 100 c-2 75 1 100 10 100 9 0 8 3 -2 10 -8
5 -19 10 -25 10 -5 0 -17 -5 -25 -10z"/>
<path d="M3432 2311 c-11 -7 -11 -9 2 -14 20 -8 22 -97 4 -115 -9 -9 -4 -12
22 -12 26 0 31 3 22 12 -7 7 -12 39 -12 75 0 64 -7 74 -38 54z"/>
<path d="M3930 2310 c-12 -8 -12 -10 -1 -10 10 0 12 -15 9 -64 l-4 -63 29 -1
c26 -1 27 1 12 12 -14 10 -16 25 -13 74 3 62 -2 71 -32 52z"/>
<path d="M4183 2313 c-10 -3 -9 -8 2 -20 17 -16 20 -75 5 -102 -8 -15 -5 -19
13 -19 20 0 22 4 19 55 -3 35 1 60 10 70 9 12 9 15 1 9 -7 -4 -13 -2 -13 3 0
11 -16 13 -37 4z"/>
<path d="M3703 2247 c-43 -19 -37 -77 8 -77 18 0 18 1 -3 22 l-21 21 23 19
c27 22 24 30 -7 15z"/>
<path d="M2750 2185 c-11 -13 -8 -15 20 -15 28 0 31 2 20 15 -7 8 -16 15 -20
15 -4 0 -13 -7 -20 -15z"/>
<path d="M5960 3189 c0 -5 5 -7 10 -4 6 3 10 8 10 11 0 2 -4 4 -10 4 -5 0 -10
-5 -10 -11z"/>
<path d="M2391 3174 c0 -11 3 -14 6 -6 3 7 2 16 -1 19 -3 4 -6 -2 -5 -13z"/>
<path d="M4762 3170 c0 -14 2 -19 5 -12 2 6 2 18 0 25 -3 6 -5 1 -5 -13z"/>
<path d="M5268 3165 c-3 -14 -1 -25 3 -25 5 0 9 11 9 25 0 14 -2 25 -4 25 -2
0 -6 -11 -8 -25z"/>
<path d="M4210 3157 c-19 -9 -25 -21 -27 -47 -1 -19 1 -26 4 -15 9 34 35 55
67 55 24 0 27 3 16 10 -20 13 -30 12 -60 -3z"/>
<path d="M409 3154 c-1 -5 0 -19 1 -31 1 -16 -4 -23 -15 -23 -12 0 -15 5 -11
17 6 14 2 12 -17 -5 -18 -17 -35 -22 -79 -22 -51 0 -56 -2 -51 -20 3 -11 12
-20 19 -20 15 0 19 -21 15 -92 -3 -43 -1 -48 18 -48 12 0 21 4 21 9 0 10 50
25 57 17 3 -3 -7 -21 -22 -40 -23 -30 -34 -36 -66 -36 -21 0 -41 -4 -44 -10
-4 -6 3 -9 16 -7 12 1 24 -4 26 -11 3 -7 -1 -10 -10 -6 -15 5 -47 -20 -47 -37
0 -5 59 -9 135 -9 l135 0 0 41 c0 23 -4 38 -10 34 -5 -3 -6 -13 -3 -22 4 -11
2 -14 -8 -11 -11 4 -14 26 -14 92 0 60 -3 80 -9 66 -10 -23 -36 -27 -36 -6 0
8 -6 16 -12 18 -9 3 -8 9 4 21 10 11 19 13 23 7 15 -25 25 -6 25 48 0 46 -4
63 -20 77 -11 10 -20 14 -21 9z m-20 -83 c12 -8 11 -15 -4 -48 -11 -21 -18
-44 -17 -50 2 -7 -1 -13 -5 -14 -4 0 -18 -2 -30 -5 -17 -3 -23 1 -23 15 0 11
-4 21 -9 23 -17 6 -21 44 -6 64 14 19 14 19 15 -1 0 -18 1 -18 16 3 16 23 39
28 63 13z m-89 -126 c0 -14 -4 -25 -10 -25 -5 0 -10 11 -10 25 0 14 5 25 10
25 6 0 10 -11 10 -25z m80 -50 c0 -8 -7 -15 -15 -15 -26 0 -18 20 13 29 1 1 2
-6 2 -14z m28 -50 c-1 -19 -5 -35 -10 -35 -5 0 -7 4 -3 9 3 5 -5 11 -17 13
-31 4 -36 35 -6 41 13 2 26 5 30 6 4 0 7 -15 6 -34z m-68 -6 c0 -12 -37 -12
-45 0 -3 5 3 11 12 13 21 5 33 0 33 -13z"/>
<path d="M1613 3148 c-15 -20 -25 -38 -20 -38 3 0 12 11 21 25 17 26 16 35 -1
13z"/>
<path d="M2412 3140 c0 -8 4 -26 8 -40 6 -20 8 -21 8 -5 0 11 -3 29 -8 40 -5
12 -8 14 -8 5z"/>
<path d="M1642 3113 c-14 -27 3 -61 34 -69 22 -6 32 -2 50 19 15 18 29 25 41
21 15 -5 16 -4 3 5 -23 16 -34 13 -45 -11 -6 -13 -20 -24 -32 -26 -24 -4 -32
13 -10 22 6 3 3 4 -8 3 -16 -2 -20 3 -18 26 2 31 -3 34 -15 10z"/>
<path d="M1696 3114 c-4 -9 -4 -19 -1 -22 2 -3 7 3 11 12 4 9 4 19 1 22 -2 3
-7 -3 -11 -12z"/>
<path d="M1932 3093 c-2 -41 -1 -43 26 -42 22 1 23 2 5 6 -17 3 -23 13 -26 41
l-4 37 -1 -42z"/>
<path d="M5487 3123 c-4 -3 -2 -12 4 -20 9 -10 7 -13 -9 -13 -28 0 -45 -25
-38 -55 5 -20 13 -25 39 -25 l32 0 -3 60 c-4 56 -10 69 -25 53z m11 -76 c3
-21 -1 -27 -16 -27 -22 0 -34 22 -25 45 9 25 38 13 41 -18z"/>
<path d="M5960 3115 c0 -8 4 -15 10 -15 5 0 7 7 4 15 -4 8 -8 15 -10 15 -2 0
-4 -7 -4 -15z"/>
<path d="M4280 3110 c0 -5 -17 -21 -37 -35 -30 -20 -34 -25 -17 -25 12 0 33
11 48 25 27 25 34 45 16 45 -5 0 -10 -4 -10 -10z"/>
<path d="M4732 3100 c0 -14 2 -19 5 -12 2 6 2 18 0 25 -3 6 -5 1 -5 -13z"/>
<path d="M1565 3090 c3 -4 14 -10 25 -13 11 -3 18 -2 15 3 -3 4 -14 10 -25 13
-11 3 -18 2 -15 -3z"/>
<path d="M5276 3087 c3 -10 9 -15 12 -12 3 3 0 11 -7 18 -10 9 -11 8 -5 -6z"/>
<path d="M5709 3096 c-3 -3 -3 -23 -1 -45 3 -30 8 -41 21 -40 10 0 11 2 4 6
-15 6 -17 49 -3 58 6 4 8 11 5 16 -7 10 -19 12 -26 5z"/>
<path d="M2685 3080 c-3 -5 -1 -10 5 -10 14 0 101 -58 117 -78 13 -16 30 -11
19 6 -5 9 -123 92 -131 92 -2 0 -7 -4 -10 -10z"/>
<path d="M2805 3080 c3 -5 8 -10 11 -10 2 0 4 5 4 10 0 6 -5 10 -11 10 -5 0
-7 -4 -4 -10z"/>
<path d="M5148 3083 c7 -3 16 -2 19 1 4 3 -2 6 -13 5 -11 0 -14 -3 -6 -6z"/>
<path d="M5360 3081 c0 -5 9 -7 20 -4 11 3 20 0 20 -6 0 -6 -4 -11 -10 -11
-16 0 -51 -43 -42 -52 5 -5 22 -6 38 -2 27 5 29 8 26 45 -4 33 -7 39 -28 39
-13 0 -24 -4 -24 -9z m40 -46 c0 -9 -9 -15 -21 -15 -18 0 -19 2 -9 15 7 8 16
15 21 15 5 0 9 -7 9 -15z"/>
<path d="M5546 3081 c-4 -5 2 -7 12 -4 15 4 19 -1 20 -26 0 -22 -4 -31 -15
-31 -9 0 -13 6 -9 15 3 8 1 15 -4 15 -6 0 -10 -9 -10 -20 0 -17 6 -20 38 -19
20 0 31 3 25 6 -7 2 -13 20 -13 39 0 27 -4 34 -19 34 -11 0 -22 -4 -25 -9z"/>
<path d="M5617 3084 c-3 -3 -1 -20 3 -37 4 -18 3 -43 -1 -55 -7 -18 -5 -22 10
-22 14 0 18 5 14 19 -4 14 1 21 19 24 l23 4 -23 2 c-19 1 -23 6 -20 29 4 34
30 36 40 2 6 -23 7 -23 5 5 -2 26 -6 30 -34 32 -17 0 -34 -1 -36 -3z"/>
<path d="M5793 3084 c24 -8 21 -27 -4 -21 -17 5 -20 1 -17 -21 2 -20 9 -28 28
-29 25 -3 25 -3 3 7 -29 12 -30 30 -2 30 27 0 22 34 -6 37 -16 1 -16 1 -2 -3z"/>
<path d="M5849 3083 c-6 -30 -2 -69 6 -75 16 -12 30 -9 17 4 -17 17 -15 44 4
62 14 15 14 16 -5 16 -12 0 -22 -3 -22 -7z"/>
<path d="M4323 3064 c-2 -6 -20 -20 -38 -30 -19 -10 -37 -24 -39 -30 -5 -14
21 -40 31 -30 3 3 1 6 -5 6 -25 0 -10 20 32 45 58 34 76 54 46 52 -12 -1 -24
-7 -27 -13z"/>
<path d="M2446 3045 c8 -37 14 -45 14 -19 0 10 -5 26 -10 34 -8 11 -9 7 -4
-15z"/>
<path d="M4721 3054 c0 -11 3 -14 6 -6 3 7 2 16 -1 19 -3 4 -6 -2 -5 -13z"/>
<path d="M1758 3023 c6 -2 18 -2 25 0 6 3 1 5 -13 5 -14 0 -19 -2 -12 -5z"/>
<path d="M1858 3023 c7 -3 16 -2 19 1 4 3 -2 6 -13 5 -11 0 -14 -3 -6 -6z"/>
<path d="M2038 3023 c7 -3 16 -2 19 1 4 3 -2 6 -13 5 -11 0 -14 -3 -6 -6z"/>
<path d="M6359 3017 c5 -5 24 -7 42 -5 33 3 33 4 -8 8 -23 3 -39 2 -34 -3z"/>
<path d="M1113 3013 c15 -2 37 -2 50 0 12 2 0 4 -28 4 -27 0 -38 -2 -22 -4z"/>
<path d="M1233 3013 c9 -2 25 -2 35 0 9 3 1 5 -18 5 -19 0 -27 -2 -17 -5z"/>
<path d="M2110 3010 c0 -5 5 -10 11 -10 5 0 7 5 4 10 -3 6 -8 10 -11 10 -2 0
-4 -4 -4 -10z"/>
<path d="M4410 3009 c0 -5 5 -7 10 -4 6 3 10 8 10 11 0 2 -4 4 -10 4 -5 0 -10
-5 -10 -11z"/>
<path d="M6247 3000 c8 -30 18 -32 18 -4 0 13 -5 24 -12 24 -6 0 -9 -9 -6 -20z"/>
<path d="M6318 3013 c7 -3 16 -2 19 1 4 3 -2 6 -13 5 -11 0 -14 -3 -6 -6z"/>
<path d="M6460 3010 c0 -5 5 -10 11 -10 5 0 7 5 4 10 -3 6 -8 10 -11 10 -2 0
-4 -4 -4 -10z"/>
<path d="M1008 3003 c7 -3 16 -2 19 1 4 3 -2 6 -13 5 -11 0 -14 -3 -6 -6z"/>
<path d="M1328 3003 c7 -3 16 -2 19 1 4 3 -2 6 -13 5 -11 0 -14 -3 -6 -6z"/>
<path d="M2145 3000 c3 -5 8 -10 11 -10 2 0 4 5 4 10 0 6 -5 10 -11 10 -5 0
-7 -4 -4 -10z"/>
<path d="M776 2983 c-6 -14 -5 -15 5 -6 7 7 10 15 7 18 -3 3 -9 -2 -12 -12z"/>
<path d="M933 2993 c-13 -2 -23 -8 -23 -12 0 -5 11 -6 25 -3 14 2 25 8 25 13
0 5 -1 8 -2 8 -2 -1 -13 -4 -25 -6z"/>
<path d="M2710 2986 c0 -39 87 -62 98 -26 4 12 2 13 -9 3 -19 -19 -37 -16 -64
12 -15 14 -25 19 -25 11z"/>
<path d="M4691 2984 c0 -11 3 -14 6 -6 3 7 2 16 -1 19 -3 4 -6 -2 -5 -13z"/>
<path d="M6168 2983 c7 -3 16 -2 19 1 4 3 -2 6 -13 5 -11 0 -14 -3 -6 -6z"/>
<path d="M6530 2980 c8 -5 22 -10 30 -10 13 0 13 1 0 10 -8 5 -22 10 -30 10
-13 0 -13 -1 0 -10z"/>
<path d="M1019 2969 c-2 -39 3 -105 10 -112 4 -4 7 20 6 53 -1 33 -4 63 -8 66
-4 4 -7 1 -8 -7z"/>
<path d="M1439 2959 c13 -11 26 -17 29 -14 7 6 -29 34 -43 34 -5 0 1 -9 14
-20z"/>
<path d="M2218 2973 c6 -2 18 -2 25 0 6 3 1 5 -13 5 -14 0 -19 -2 -12 -5z"/>
<path d="M2482 2960 c0 -14 2 -19 5 -12 2 6 2 18 0 25 -3 6 -5 1 -5 -13z"/>
<path d="M4926 2965 c-3 -8 -1 -15 4 -15 6 0 10 7 10 15 0 8 -2 15 -4 15 -2 0
-6 -7 -10 -15z"/>
<path d="M745 2949 c-4 -6 -5 -12 -2 -15 2 -3 7 2 10 11 7 17 1 20 -8 4z"/>
<path d="M4676 2945 c4 -8 8 -15 10 -15 2 0 4 7 4 15 0 8 -4 15 -10 15 -5 0
-7 -7 -4 -15z"/>
<path d="M5468 2953 c7 -3 16 -2 19 1 4 3 -2 6 -13 5 -11 0 -14 -3 -6 -6z"/>
<path d="M5730 2950 c-21 -7 -21 -8 -5 -9 11 0 27 4 35 9 18 11 5 11 -30 0z"/>
<path d="M6286 2947 c3 -10 9 -15 12 -12 3 3 0 11 -7 18 -10 9 -11 8 -5 -6z"/>
<path d="M6600 2950 c0 -5 5 -10 11 -10 5 0 7 5 4 10 -3 6 -8 10 -11 10 -2 0
-4 -4 -4 -10z"/>
<path d="M1117 2943 c-10 -16 9 -87 23 -91 12 -4 13 -2 3 9 -18 18 -16 59 2
59 10 0 15 -10 15 -29 0 -16 6 -31 13 -34 8 -3 12 8 12 39 0 26 -5 46 -12 49
-7 2 -13 0 -13 -6 0 -6 -7 -6 -19 1 -11 5 -22 7 -24 3z"/>
<path d="M2308 2943 c7 -3 16 -2 19 1 4 3 -2 6 -13 5 -11 0 -14 -3 -6 -6z"/>
<path d="M4405 2915 c-27 -19 -58 -35 -69 -35 -15 0 -16 -3 -6 -14 10 -13 17
-11 52 14 22 16 43 28 47 27 3 -2 16 7 28 20 33 34 6 27 -52 -12z"/>
<path d="M5543 2943 c9 -2 23 -2 30 0 6 3 -1 5 -18 5 -16 0 -22 -2 -12 -5z"/>
<path d="M5643 2943 c9 -2 23 -2 30 0 6 3 -1 5 -18 5 -16 0 -22 -2 -12 -5z"/>
<path d="M6075 2939 c-11 -17 1 -21 15 -4 8 9 8 15 2 15 -6 0 -14 -5 -17 -11z"/>
<path d="M1063 2923 c14 -4 18 -13 15 -36 -2 -19 2 -32 11 -35 10 -3 12 0 8
12 -4 10 -7 29 -7 42 0 19 -5 24 -22 23 -18 -1 -19 -2 -5 -6z"/>
<path d="M1220 2929 c-6 -57 -3 -119 7 -119 6 0 9 9 6 20 -4 14 0 20 12 20 43
0 62 71 20 78 l-20 4 20 -16 c16 -12 18 -18 9 -33 -17 -27 -39 -22 -39 9 -1
22 -14 54 -15 37z"/>
<path d="M1500 2920 c0 -5 5 -10 11 -10 5 0 7 5 4 10 -3 6 -8 10 -11 10 -2 0
-4 -4 -4 -10z"/>
<path d="M2491 2915 c-1 -12 -6 -26 -12 -32 -7 -7 -3 -9 15 -6 18 4 24 9 18
17 -5 6 -12 18 -15 26 -4 11 -6 9 -6 -5z"/>
<path d="M4494 2908 c1 -14 9 -24 19 -26 18 -4 18 -3 2 22 -21 32 -23 32 -21
4z"/>
<path d="M2408 2913 c7 -3 16 -2 19 1 4 3 -2 6 -13 5 -11 0 -14 -3 -6 -6z"/>
<path d="M2635 2900 c-3 -5 -1 -10 4 -10 6 0 11 5 11 10 0 6 -2 10 -4 10 -3 0
-8 -4 -11 -10z"/>
<path d="M6666 2895 c4 -8 8 -15 10 -15 2 0 4 7 4 15 0 8 -4 15 -10 15 -5 0
-7 -7 -4 -15z"/>
<path d="M685 2879 c-4 -6 -5 -12 -2 -15 2 -3 7 2 10 11 7 17 1 20 -8 4z"/>
<path d="M4651 2874 c0 -11 3 -14 6 -6 3 7 2 16 -1 19 -3 4 -6 -2 -5 -13z"/>
<path d="M2275 2869 c-9 -14 4 -27 13 -13 4 6 14 14 22 17 10 4 8 6 -7 6 -12
1 -25 -4 -28 -10z"/>
<path d="M2368 2873 c12 -2 30 -2 40 0 9 3 -1 5 -23 4 -22 0 -30 -2 -17 -4z"/>
<path d="M2616 2873 c-10 -10 -7 -23 6 -23 6 0 26 -11 44 -25 18 -14 35 -22
37 -18 6 10 -79 74 -87 66z"/>
<path d="M2075 2850 c-7 -12 2 -12 30 0 19 8 19 9 -2 9 -12 1 -25 -3 -28 -9z"/>
<path d="M2173 2853 c9 -2 25 -2 35 0 9 3 1 5 -18 5 -19 0 -27 -2 -17 -5z"/>
<path d="M4444 2849 c-3 -6 -24 -19 -46 -29 -32 -14 -36 -19 -24 -29 8 -6 16
-8 18 -4 5 12 66 53 78 53 6 0 8 5 5 10 -8 13 -22 13 -31 -1z"/>
<path d="M4715 2850 c-3 -5 -2 -10 4 -10 5 0 13 5 16 10 3 6 2 10 -4 10 -5 0
-13 -4 -16 -10z"/>
<path d="M5990 2845 c0 -8 2 -15 4 -15 2 0 6 7 10 15 3 8 1 15 -4 15 -6 0 -10
-7 -10 -15z"/>
<path d="M1561 2829 c-1 -23 2 -25 32 -20 31 5 31 6 5 9 -15 2 -29 11 -31 20
-3 10 -5 7 -6 -9z"/>
<path d="M1973 2843 c9 -2 25 -2 35 0 9 3 1 5 -18 5 -19 0 -27 -2 -17 -5z"/>
<path d="M4628 2828 c-6 -30 -4 -31 27 -18 16 7 17 9 3 9 -9 1 -18 9 -20 19
-3 12 -6 9 -10 -10z"/>
<path d="M1760 2836 c0 -2 14 -6 30 -8 17 -3 30 -1 30 4 0 4 -13 8 -30 8 -16
0 -30 -2 -30 -4z"/>
<path d="M6718 2790 c2 -22 6 -40 8 -40 2 0 4 18 4 40 0 22 -3 40 -8 40 -4 0
-6 -18 -4 -40z"/>
<path d="M740 2804 c0 -10 5 -26 10 -34 8 -11 9 -7 4 15 -8 37 -14 45 -14 19z"/>
<path d="M1678 2813 c6 -2 18 -2 25 0 6 3 1 5 -13 5 -14 0 -19 -2 -12 -5z"/>
<path d="M2600 2810 c-15 -10 -15 -10 25 -10 3 0 5 3 6 7 1 12 -15 13 -31 3z"/>
<path d="M5981 2803 c-1 -17 -9 -23 -33 -26 -19 -2 -9 -4 22 -4 30 0 47 1 38
4 -9 2 -19 14 -21 26 l-4 22 -2 -22z"/>
<path d="M1008 2768 c-12 -18 -13 -27 -4 -40 8 -13 8 -23 -2 -38 -10 -17 -10
-20 6 -20 15 0 18 6 14 31 -3 20 0 34 9 40 10 6 11 9 2 9 -7 0 -13 7 -13 16 0
11 6 15 20 11 11 -3 20 -1 20 4 0 18 -38 8 -52 -13z"/>
<path d="M1288 2785 c-4 -4 -4 -13 -1 -21 3 -9 -2 -14 -14 -14 -39 0 -58 -46
-29 -69 8 -7 25 -11 38 -9 22 3 23 6 18 61 -3 33 -8 56 -12 52z m2 -75 c0 -20
-5 -30 -15 -30 -21 0 -37 34 -23 48 21 21 38 13 38 -18z"/>
<path d="M4658 2783 c7 -3 16 -2 19 1 4 3 -2 6 -13 5 -11 0 -14 -3 -6 -6z"/>
<path d="M6058 2773 c6 -2 18 -2 25 0 6 3 1 5 -13 5 -14 0 -19 -2 -12 -5z"/>
<path d="M4760 2760 c-13 -8 -12 -10 3 -10 9 0 17 5 17 10 0 12 -1 12 -20 0z"/>
<path d="M5845 2760 c-19 -8 -19 -9 2 -9 12 -1 25 4 28 9 7 12 -2 12 -30 0z"/>
<path d="M6158 2753 c7 -3 16 -2 19 1 4 3 -2 6 -13 5 -11 0 -14 -3 -6 -6z"/>
<path d="M1088 2743 c7 -3 16 -2 19 1 4 3 -2 6 -13 5 -11 0 -14 -3 -6 -6z"/>
<path d="M1173 2744 c24 -8 21 -27 -4 -21 -17 5 -20 1 -17 -21 2 -20 9 -28 28
-29 25 -3 25 -3 3 7 -29 12 -30 30 -2 30 27 0 22 34 -6 37 -16 1 -16 1 -2 -3z"/>
<path d="M4506 2741 c-4 -7 -5 -15 -2 -18 9 -9 19 4 14 18 -4 11 -6 11 -12 0z"/>
<path d="M4828 2743 c7 -3 16 -2 19 1 4 3 -2 6 -13 5 -11 0 -14 -3 -6 -6z"/>
<path d="M5738 2743 c7 -3 16 -2 19 1 4 3 -2 6 -13 5 -11 0 -14 -3 -6 -6z"/>
<path d="M5646 2725 c-14 -11 -16 -15 -5 -15 8 0 23 7 33 15 14 11 16 15 5 15
-8 0 -23 -7 -33 -15z"/>
<path d="M6263 2733 c9 -2 23 -2 30 0 6 3 -1 5 -18 5 -16 0 -22 -2 -12 -5z"/>
<path d="M1060 2710 c0 -21 20 -40 40 -39 9 0 6 4 -7 9 -28 11 -30 30 -4 30
11 0 22 4 25 8 3 5 -8 9 -24 9 -21 0 -30 -5 -30 -17z"/>
<path d="M6075 2670 c0 -41 4 -60 12 -60 7 0 10 7 7 15 -8 21 13 19 25 -2 5
-10 12 -15 15 -12 3 3 -6 17 -19 32 -15 16 -25 38 -25 57 0 16 -3 30 -7 30 -5
0 -8 -27 -8 -60z"/>
<path d="M2525 2711 c-5 -9 35 -44 43 -37 5 6 -21 46 -30 46 -4 0 -9 -4 -13
-9z"/>
<path d="M4930 2710 c8 -5 22 -10 30 -10 13 0 13 1 0 10 -8 5 -22 10 -30 10
-13 0 -13 -1 0 -10z"/>
<path d="M800 2700 c0 -5 5 -10 10 -10 6 0 10 5 10 10 0 6 -4 10 -10 10 -5 0
-10 -4 -10 -10z"/>
<path d="M6350 2697 c27 -15 36 -14 25 2 -3 6 -16 11 -28 11 -21 0 -21 -1 3
-13z"/>
<path d="M1465 2680 c-3 -5 -1 -10 4 -10 6 0 11 5 11 10 0 6 -2 10 -4 10 -3 0
-8 -4 -11 -10z"/>
<path d="M4550 2680 c0 -5 7 -7 15 -4 8 4 15 8 15 10 0 2 -7 4 -15 4 -8 0 -15
-4 -15 -10z"/>
<path d="M5013 2683 c9 -2 23 -2 30 0 6 3 -1 5 -18 5 -16 0 -22 -2 -12 -5z"/>
<path d="M5749 2688 c-5 -18 -2 -78 4 -78 4 0 7 11 7 24 0 13 3 31 6 40 3 9 1
16 -5 16 -6 0 -11 -1 -12 -2z"/>
<path d="M5785 2650 c0 -22 4 -39 9 -37 13 4 14 69 1 74 -6 2 -10 -15 -10 -37z"/>
<path d="M5828 2682 c8 -5 12 -22 10 -37 -1 -16 2 -30 8 -32 7 -2 9 9 5 33 -3
21 -13 39 -21 41 -12 4 -12 3 -2 -5z"/>
<path d="M5902 2678 c-23 -23 -7 -68 25 -68 8 0 6 7 -7 20 -22 22 -17 53 8 48
9 -2 19 -14 24 -28 6 -23 7 -23 5 5 -2 33 -32 46 -55 23z"/>
<path d="M6010 2686 c0 -2 9 -6 20 -9 11 -3 20 -1 20 4 0 5 -9 9 -20 9 -11 0
-20 -2 -20 -4z"/>
<path d="M5540 2669 c0 -5 5 -7 10 -4 6 3 10 8 10 11 0 2 -4 4 -10 4 -5 0 -10
-5 -10 -11z"/>
<path d="M5991 2660 c-1 -29 15 -50 38 -50 11 0 9 4 -6 15 -12 8 -24 25 -26
38 -4 20 -4 20 -6 -3z"/>
<path d="M5120 2660 c0 -5 7 -7 15 -4 8 4 15 8 15 10 0 2 -7 4 -15 4 -8 0 -15
-4 -15 -10z"/>
<path d="M6532 2618 c-28 -27 -52 -52 -52 -56 0 -4 22 -5 49 -4 40 3 51 0 63
-17 15 -21 15 -21 28 5 12 21 12 27 1 34 -8 4 -11 15 -8 24 4 9 2 16 -3 16 -6
0 -10 9 -10 19 0 35 -14 30 -68 -21z"/>
<path d="M2497 2644 c4 -12 63 -26 63 -15 0 3 -15 11 -34 17 -26 8 -33 8 -29
-2z"/>
<path d="M898 2643 c7 -3 16 -2 19 1 4 3 -2 6 -13 5 -11 0 -14 -3 -6 -6z"/>
<path d="M1343 2633 c9 -2 23 -2 30 0 6 3 -1 5 -18 5 -16 0 -22 -2 -12 -5z"/>
<path d="M5228 2633 c7 -3 16 -2 19 1 4 3 -2 6 -13 5 -11 0 -14 -3 -6 -6z"/>
<path d="M6450 2620 c0 -5 5 -10 11 -10 5 0 7 5 4 10 -3 6 -8 10 -11 10 -2 0
-4 -4 -4 -10z"/>
<path d="M1256 2611 c-3 -4 6 -6 19 -3 14 2 25 6 25 8 0 8 -39 4 -44 -5z"/>
<path d="M5308 2608 c6 -6 18 -8 28 -6 14 3 12 5 -9 10 -19 3 -25 2 -19 -4z"/>
<path d="M1063 2603 c9 -2 23 -2 30 0 6 3 -1 5 -18 5 -16 0 -22 -2 -12 -5z"/>
<path d="M1153 2603 c9 -2 25 -2 35 0 9 3 1 5 -18 5 -19 0 -27 -2 -17 -5z"/>
<path d="M2451 2591 c-9 -16 -9 -19 2 -15 8 3 22 -2 31 -11 13 -13 16 -14 16
-2 0 8 -9 22 -19 31 -19 17 -20 17 -30 -3z"/>
<path d="M5418 2573 c6 -2 18 -2 25 0 6 3 1 5 -13 5 -14 0 -19 -2 -12 -5z"/>
<path d="M2420 2544 c0 -18 24 -34 50 -33 20 1 21 2 5 6 -11 3 -28 12 -37 21
-10 8 -18 11 -18 6z"/>
<path d="M5481 2534 c0 -11 3 -14 6 -6 3 7 2 16 -1 19 -3 4 -6 -2 -5 -13z"/>
<path d="M5751 2550 c-1 -3 -3 -31 -4 -63 -2 -51 0 -57 18 -57 13 0 16 3 8 8
-6 4 -13 32 -16 62 -2 30 -4 53 -6 50z"/>
<path d="M5989 2548 c0 -2 -1 -29 -2 -61 -2 -45 1 -57 13 -57 10 0 15 10 15
32 0 24 5 34 19 36 16 3 18 -1 14 -32 -3 -25 0 -36 9 -36 8 0 10 7 6 18 -6 16
-5 16 14 0 11 -10 28 -18 39 -17 17 0 16 1 -3 9 -13 5 -23 18 -23 29 0 14 -5
19 -15 15 -10 -4 -15 0 -15 11 0 13 -6 16 -25 13 -21 -4 -25 -1 -25 18 0 13
-4 24 -10 24 -5 0 -10 -1 -11 -2z"/>
<path d="M2325 2520 c3 -5 8 -10 11 -10 2 0 4 5 4 10 0 6 -5 10 -11 10 -5 0
-7 -4 -4 -10z"/>
<path d="M406 2503 c-6 -14 -5 -15 5 -6 7 7 10 15 7 18 -3 3 -9 -2 -12 -12z"/>
<path d="M5617 2513 c-4 -3 -2 -12 4 -20 7 -7 9 -29 6 -51 -3 -20 -3 -31 0
-24 2 6 12 12 21 13 11 0 12 2 5 6 -7 2 -13 18 -13 34 0 16 5 29 13 29 8 0 7
4 -3 10 -18 12 -24 12 -33 3z"/>
<path d="M5693 2504 c24 -8 21 -27 -4 -21 -17 5 -20 1 -17 -21 2 -20 9 -28 28
-29 25 -3 25 -3 3 7 -29 12 -30 30 -2 30 27 0 22 34 -6 37 -16 1 -16 1 -2 -3z"/>
<path d="M5833 2504 c24 -8 21 -27 -4 -21 -17 5 -20 1 -17 -21 2 -20 9 -28 28
-29 25 -3 25 -3 3 7 -29 12 -30 30 -2 30 27 0 22 34 -6 37 -16 1 -16 1 -2 -3z"/>
<path d="M5889 2507 c0 -1 -1 -28 -2 -60 -2 -50 0 -57 17 -57 15 0 16 3 6 15
-10 12 -9 16 4 20 9 3 23 7 32 10 11 3 14 15 12 37 -3 29 -7 33 -35 35 -18 1
-33 1 -34 0z m59 -40 c3 -21 -1 -27 -16 -27 -24 0 -36 28 -21 47 17 20 33 11
37 -20z"/>
<path d="M6108 2500 c12 -6 22 -18 22 -30 0 -11 5 -20 10 -20 13 0 13 16 0 41
-6 10 -21 19 -33 18 l-22 0 23 -9z"/>
<path d="M6179 2504 c-5 -39 -2 -74 6 -74 11 0 13 65 2 76 -4 4 -8 3 -8 -2z"/>
<path d="M6219 2501 c9 -6 12 -20 9 -40 -4 -26 -1 -31 15 -31 16 0 17 3 8 14
-7 8 -11 20 -10 28 3 28 -2 38 -18 38 -14 0 -15 -2 -4 -9z"/>
<path d="M6303 2504 c24 -8 22 -28 -3 -21 -16 4 -20 0 -20 -18 0 -16 10 -28
32 -39 44 -22 49 -20 11 5 -38 24 -42 39 -12 39 27 0 22 34 -6 37 -16 1 -16 1
-2 -3z"/>
<path d="M6420 2475 c-8 -9 -8 -15 -2 -15 12 0 26 19 19 26 -2 2 -10 -2 -17
-11z"/>
<path d="M373 2465 c-3 -9 -3 -18 -1 -21 3 -3 8 4 11 16 6 23 -1 27 -10 5z"/>
<path d="M5560 2446 c0 -2 7 -7 16 -10 8 -3 12 -2 9 4 -6 10 -25 14 -25 6z"/>
<path d="M335 2409 c-4 -6 -5 -12 -2 -15 2 -3 7 2 10 11 7 17 1 20 -8 4z"/>
<path d="M2315 2410 c-3 -5 -1 -10 6 -10 7 0 28 -12 46 -26 26 -19 38 -23 46
-15 8 8 7 11 -3 11 -7 0 -28 11 -46 25 -37 28 -40 29 -49 15z"/>
<path d="M6690 2411 c0 -6 4 -13 10 -16 6 -3 7 1 4 9 -7 18 -14 21 -14 7z"/>
<path d="M5648 2403 c6 -2 18 -2 25 0 6 3 1 5 -13 5 -14 0 -19 -2 -12 -5z"/>
<path d="M6233 2393 c9 -2 23 -2 30 0 6 3 -1 5 -18 5 -16 0 -22 -2 -12 -5z"/>
<path d="M5748 2373 c7 -3 16 -2 19 1 4 3 -2 6 -13 5 -11 0 -14 -3 -6 -6z"/>
<path d="M5823 2363 c9 -2 25 -2 35 0 9 3 1 5 -18 5 -19 0 -27 -2 -17 -5z"/>
<path d="M5923 2363 c9 -2 25 -2 35 0 9 3 1 5 -18 5 -19 0 -27 -2 -17 -5z"/>
<path d="M6023 2363 c9 -2 25 -2 35 0 9 3 1 5 -18 5 -19 0 -27 -2 -17 -5z"/>
<path d="M6118 2363 c7 -3 16 -2 19 1 4 3 -2 6 -13 5 -11 0 -14 -3 -6 -6z"/>
<path d="M276 2333 c-6 -14 -5 -15 5 -6 7 7 10 15 7 18 -3 3 -9 -2 -12 -12z"/>
<path d="M2200 2340 c0 -5 7 -7 15 -4 8 4 15 8 15 10 0 2 -7 4 -15 4 -8 0 -15
-4 -15 -10z"/>
<path d="M2241 2325 c-2 -33 -91 -63 -91 -31 0 8 6 17 13 19 7 3 5 6 -5 6 -10
1 -22 -8 -28 -19 -8 -15 -6 -21 10 -30 11 -6 20 -17 20 -25 0 -8 7 -15 15 -15
8 0 15 6 15 13 0 7 15 19 33 27 29 13 32 18 26 45 -4 19 -7 23 -8 10z"/>
<path d="M4786 2325 c8 -20 -13 -45 -37 -45 -11 0 -19 -7 -19 -15 0 -8 -5 -15
-11 -15 -5 0 -8 -4 -4 -10 3 -5 21 2 41 15 19 13 40 25 46 27 13 5 2 58 -12
58 -5 0 -7 -7 -4 -15z"/>
<path d="M240 2291 c0 -5 5 -13 10 -16 6 -4 8 -11 5 -16 -4 -5 -1 -9 4 -9 16
0 13 19 -4 36 -8 9 -15 11 -15 5z"/>
<path d="M6771 2264 c0 -11 3 -14 6 -6 3 7 2 16 -1 19 -3 4 -6 -2 -5 -13z"/>
<path d="M2233 2243 c-12 -2 -26 -17 -33 -34 -11 -26 -10 -32 9 -53 12 -12 19
-24 17 -27 -2 -2 6 -14 18 -27 l22 -22 34 25 c21 15 42 23 54 20 12 -3 16 -2
9 1 -7 3 -10 11 -7 18 3 8 -2 16 -10 19 -9 4 -16 1 -16 -6 0 -12 -30 -36 -62
-49 -12 -5 -18 -3 -18 6 0 14 46 54 103 89 15 10 25 22 22 27 -9 15 -25 12
-25 -5 0 -8 -7 -15 -15 -15 -8 0 -30 -13 -48 -30 -51 -45 -86 -37 -73 15 6 24
43 42 76 37 13 -3 13 -2 0 7 -15 11 -20 11 -57 4z"/>
<path d="M4827 2243 c-4 -3 -7 -21 -7 -39 0 -21 -6 -37 -17 -43 -14 -8 -15
-10 -3 -11 32 0 43 17 36 53 -5 29 -3 36 11 40 14 4 15 5 2 6 -9 0 -19 -2 -22
-6z"/>
<path d="M4760 2195 c0 -8 2 -15 4 -15 2 0 6 7 10 15 3 8 1 15 -4 15 -6 0 -10
-7 -10 -15z"/>
<path d="M1003 2193 c15 -2 37 -2 50 0 12 2 0 4 -28 4 -27 0 -38 -2 -22 -4z"/>
<path d="M848 2173 c23 -2 61 -2 85 0 23 2 4 4 -43 4 -47 0 -66 -2 -42 -4z"/>
<path d="M1118 2173 c23 -2 61 -2 85 0 23 2 4 4 -43 4 -47 0 -66 -2 -42 -4z"/>
<path d="M4650 2176 c0 -9 40 -13 46 -5 3 5 -6 9 -20 9 -14 0 -26 -2 -26 -4z"/>
<path d="M753 2163 c9 -2 25 -2 35 0 9 3 1 5 -18 5 -19 0 -27 -2 -17 -5z"/>
<path d="M1268 2163 c12 -2 32 -2 45 0 12 2 2 4 -23 4 -25 0 -35 -2 -22 -4z"/>
<path d="M690 2156 c0 -2 9 -6 20 -9 11 -3 20 -1 20 4 0 5 -9 9 -20 9 -11 0
-20 -2 -20 -4z"/>
<path d="M1348 2153 c6 -2 18 -2 25 0 6 3 1 5 -13 5 -14 0 -19 -2 -12 -5z"/>
<path d="M340 2141 c0 -6 4 -13 10 -16 6 -3 7 1 4 9 -7 18 -14 21 -14 7z"/>
<path d="M648 2133 c7 -3 16 -2 19 1 4 3 -2 6 -13 5 -11 0 -14 -3 -6 -6z"/>
<path d="M886 2118 c-33 -47 -10 -98 44 -98 23 0 28 5 32 30 3 19 0 30 -7 30
-8 0 -10 -10 -7 -25 4 -21 1 -25 -21 -25 -27 0 -37 16 -37 61 0 21 6 32 23 39
16 6 17 9 5 9 -9 1 -24 -9 -32 -21z"/>
<path d="M945 2131 c-3 -5 -1 -12 5 -16 5 -3 10 1 10 9 0 18 -6 21 -15 7z"/>
<path d="M998 2133 c6 -2 12 -22 12 -43 0 -56 8 -70 40 -70 16 0 31 4 34 9 3
4 -6 6 -20 3 -16 -3 -30 1 -35 9 -13 21 -11 87 4 92 6 3 -1 5 -18 5 -16 0 -24
-2 -17 -5z"/>
<path d="M1085 2130 c4 -6 11 -8 16 -5 14 9 11 15 -7 15 -8 0 -12 -5 -9 -10z"/>
<path d="M1145 2080 c0 -53 2 -60 20 -60 15 0 16 3 7 12 -7 7 -12 28 -12 48 0
20 5 41 12 48 9 9 8 12 -7 12 -18 0 -20 -7 -20 -60z"/>
<path d="M4727 2117 c-7 -20 -57 -23 -75 -5 -9 9 -12 9 -12 0 0 -15 33 -32 65
-32 26 0 40 19 33 42 -3 8 -7 6 -11 -5z"/>
<path d="M191 2111 c-41 -11 -62 -50 -55 -102 5 -36 12 -48 36 -62 31 -18 78
-23 78 -8 0 5 13 11 29 14 25 5 29 11 34 52 7 50 -3 79 -31 93 -28 15 -65 20
-91 13z m74 -47 c14 -15 25 -32 25 -37 0 -19 -43 -57 -65 -57 -26 0 -72 45
-56 55 6 3 11 15 11 26 0 17 27 36 53 38 4 1 19 -11 32 -25z"/>
<path d="M376 2097 c3 -10 9 -15 12 -12 3 3 0 11 -7 18 -10 9 -11 8 -5 -6z"/>
<path d="M1458 2101 c7 -4 14 -18 15 -30 1 -14 6 -20 15 -16 7 3 15 5 17 5 2
0 -6 11 -19 25 -13 14 -27 25 -32 25 -5 0 -3 -4 4 -9z"/>
<path d="M2355 2078 c-16 -17 -39 -34 -49 -38 -11 -4 -15 -9 -9 -13 14 -9 93
49 93 68 0 18 2 19 -35 -17z"/>
<path d="M4585 2090 c-3 -5 1 -10 10 -10 9 0 13 5 10 10 -3 6 -8 10 -10 10 -2
0 -7 -4 -10 -10z"/>
<path d="M6626 2063 c-6 -14 -5 -15 5 -6 7 7 10 15 7 18 -3 3 -9 -2 -12 -12z"/>
<path d="M2405 2056 c20 -16 19 -17 -15 -46 -19 -17 -40 -28 -47 -25 -16 5
-17 -7 -3 -21 8 -8 24 1 53 28 34 31 40 41 31 55 -6 9 -17 19 -25 21 -8 2 -5
-3 6 -12z"/>
<path d="M4630 2050 c-8 -5 -26 -10 -39 -10 -20 0 -22 -3 -13 -12 9 -9 20 -9
47 1 19 7 40 9 46 5 7 -4 10 -1 7 7 -6 18 -29 22 -48 9z"/>
<path d="M580 2040 c0 -5 5 -10 10 -10 6 0 10 5 10 10 0 6 -4 10 -10 10 -5 0
-10 -4 -10 -10z"/>
<path d="M436 2027 c3 -10 9 -15 12 -12 3 3 0 11 -7 18 -10 9 -11 8 -5 -6z"/>
<path d="M1558 2033 c7 -3 16 -2 19 1 4 3 -2 6 -13 5 -11 0 -14 -3 -6 -6z"/>
<path d="M6595 2029 c-4 -6 -5 -12 -2 -15 2 -3 7 2 10 11 7 17 1 20 -8 4z"/>
<path d="M2510 2010 c0 -5 5 -10 10 -10 6 0 10 5 10 10 0 6 -4 10 -10 10 -5 0
-10 -4 -10 -10z"/>
<path d="M640 2000 c8 -5 26 -10 39 -10 32 0 24 6 -19 14 -25 4 -31 3 -20 -4z"/>
<path d="M1628 2003 c7 -3 16 -2 19 1 4 3 -2 6 -13 5 -11 0 -14 -3 -6 -6z"/>
<path d="M1368 1993 c6 -2 18 -2 25 0 6 3 1 5 -13 5 -14 0 -19 -2 -12 -5z"/>
<path d="M4537 1976 c10 -13 22 -22 26 -19 5 3 17 -3 27 -12 10 -9 24 -14 29
-10 19 11 12 23 -18 30 -16 3 -35 13 -42 21 -6 8 -18 14 -26 14 -11 0 -10 -5
4 -24z"/>
<path d="M4650 1990 c-9 -6 -10 -10 -3 -10 6 0 15 5 18 10 8 12 4 12 -15 0z"/>
<path d="M723 1983 c9 -2 25 -2 35 0 9 3 1 5 -18 5 -19 0 -27 -2 -17 -5z"/>
<path d="M1290 1986 c0 -2 14 -6 30 -8 17 -3 30 -1 30 4 0 4 -13 8 -30 8 -16
0 -30 -2 -30 -4z"/>
<path d="M1690 1980 c0 -5 7 -7 15 -4 8 4 15 8 15 10 0 2 -7 4 -15 4 -8 0 -15
-4 -15 -10z"/>
<path d="M2426 1959 c-21 -16 -46 -29 -54 -29 -12 0 -12 -3 -2 -15 7 -9 16
-12 19 -8 3 4 25 21 48 37 24 16 40 32 37 37 -6 11 -2 13 -48 -22z"/>
<path d="M793 1963 c9 -2 25 -2 35 0 9 3 1 5 -18 5 -19 0 -27 -2 -17 -5z"/>
<path d="M1228 1963 c12 -2 30 -2 40 0 9 3 -1 5 -23 4 -22 0 -30 -2 -17 -4z"/>
<path d="M932 1953 c48 -2 129 -2 180 0 51 1 12 3 -87 3 -99 0 -141 -2 -93 -3z"/>
<path d="M1768 1953 c7 -3 16 -2 19 1 4 3 -2 6 -13 5 -11 0 -14 -3 -6 -6z"/>
<path d="M4490 1952 c0 -12 19 -26 26 -19 2 2 -2 10 -11 17 -9 8 -15 8 -15 2z"/>
<path d="M1801 1936 c2 -2 18 -6 34 -10 22 -5 26 -4 15 4 -14 9 -59 15 -49 6z"/>
<path d="M85 1920 c-3 -5 -2 -10 4 -10 5 0 13 5 16 10 3 6 2 10 -4 10 -5 0
-13 -4 -16 -10z"/>
<path d="M2490 1917 c0 -7 -19 -24 -42 -37 -23 -13 -36 -26 -30 -28 14 -4 92
46 92 59 0 4 -4 11 -10 14 -5 3 -10 0 -10 -8z"/>
<path d="M4483 1910 c-31 -13 -29 -28 2 -22 14 2 36 -3 50 -12 14 -9 25 -12
25 -7 0 5 9 11 20 14 11 3 20 10 20 15 0 6 -9 8 -20 5 -12 -3 -20 0 -20 7 0 9
-4 9 -17 -1 -13 -11 -17 -11 -20 -1 -5 14 -10 14 -40 2z"/>
<path d="M107 1904 c-4 -4 -1 -15 7 -23 9 -10 16 -43 19 -81 l3 -65 2 72 c1
39 5 73 10 76 4 2 1 2 -5 1 -7 -2 -16 4 -21 12 -4 8 -11 11 -15 8z"/>
<path d="M6496 1893 c-6 -14 -5 -15 5 -6 7 7 10 15 7 18 -3 3 -9 -2 -12 -12z"/>
<path d="M285 1890 c-28 -7 -28 -8 -5 -9 14 0 32 4 40 9 17 11 8 11 -35 0z"/>
<path d="M1925 1890 c11 -5 29 -8 40 -8 16 0 15 2 -5 8 -34 11 -60 11 -35 0z"/>
<path d="M2521 1874 c12 -14 9 -20 -16 -41 -17 -13 -39 -28 -49 -32 -11 -4
-15 -10 -10 -14 13 -8 104 50 104 66 0 15 -20 37 -33 37 -5 0 -3 -7 4 -16z"/>
<path d="M188 1863 c12 -2 32 -2 45 0 12 2 2 4 -23 4 -25 0 -35 -2 -22 -4z"/>
<path d="M2000 1860 c8 -5 24 -10 34 -10 26 0 18 6 -19 14 -22 5 -26 4 -15 -4z"/>
<path d="M6465 1859 c-4 -6 -5 -12 -2 -15 2 -3 7 2 10 11 7 17 1 20 -8 4z"/>
<path d="M1137 1853 c-4 -3 -2 -12 4 -19 6 -8 9 -32 7 -54 -2 -24 1 -40 7 -40
6 0 10 19 8 47 -2 25 2 52 8 60 9 10 7 13 -8 13 -11 0 -23 -3 -26 -7z"/>
<path d="M1220 1856 c0 -8 51 -13 56 -5 3 5 -9 9 -25 9 -17 0 -31 -2 -31 -4z"/>
<path d="M1333 1853 c9 -2 25 -2 35 0 9 3 1 5 -18 5 -19 0 -27 -2 -17 -5z"/>
<path d="M5993 1853 c26 -2 68 -2 95 0 26 2 4 3 -48 3 -52 0 -74 -1 -47 -3z"/>
<path d="M2625 1840 c3 -5 8 -10 11 -10 2 0 4 5 4 10 0 6 -5 10 -11 10 -5 0
-7 -4 -4 -10z"/>
<path d="M1058 1833 c7 -3 16 -2 19 1 4 3 -2 6 -13 5 -11 0 -14 -3 -6 -6z"/>
<path d="M1458 1833 c7 -3 16 -2 19 1 4 3 -2 6 -13 5 -11 0 -14 -3 -6 -6z"/>
<path d="M2070 1830 c8 -5 24 -10 34 -10 26 0 18 6 -19 14 -22 5 -26 4 -15 -4z"/>
<path d="M5918 1833 c7 -3 16 -2 19 1 4 3 -2 6 -13 5 -11 0 -14 -3 -6 -6z"/>
<path d="M6150 1830 c8 -5 24 -10 34 -10 26 0 18 6 -19 14 -22 5 -26 4 -15 -4z"/>
<path d="M1246 1820 c-5 -9 6 -80 13 -80 3 0 6 12 6 28 0 39 19 43 23 5 2 -23
8 -33 20 -32 11 0 12 3 5 6 -16 6 -17 45 -1 61 7 7 8 12 3 13 -50 4 -67 4 -69
-1z"/>
<path d="M1533 1823 c9 -2 23 -2 30 0 6 3 -1 5 -18 5 -16 0 -22 -2 -12 -5z"/>
<path d="M958 1813 c7 -3 16 -2 19 1 4 3 -2 6 -13 5 -11 0 -14 -3 -6 -6z"/>
<path d="M1380 1810 c0 -6 5 -10 10 -10 16 0 11 -47 -5 -54 -18 -6 -30 16 -22
39 7 17 -8 29 -24 19 -8 -4 -8 -9 0 -17 15 -15 14 -70 -1 -85 -9 -9 -7 -12 9
-12 16 0 20 5 16 20 -4 14 0 20 11 20 20 0 48 43 40 63 -6 18 -34 31 -34 17z"/>
<path d="M2540 1789 c-19 -15 -43 -29 -53 -29 -15 0 -16 -2 -5 -14 11 -12 19
-9 49 15 20 16 42 29 48 29 6 0 11 4 11 9 0 21 -17 18 -50 -10z"/>
<path d="M1199 1797 c7 -9 11 -26 8 -37 -3 -12 0 -20 8 -20 18 0 4 62 -15 68
-13 5 -13 3 -1 -11z"/>
<path d="M2168 1793 c7 -3 16 -2 19 1 4 3 -2 6 -13 5 -11 0 -14 -3 -6 -6z"/>
<path d="M4396 1783 c28 -25 61 -43 79 -43 25 0 17 17 -11 24 -15 4 -33 14
-41 21 -8 8 -22 15 -31 15 -13 0 -12 -3 4 -17z"/>
<path d="M5918 1793 c7 -3 12 -24 12 -53 0 -29 -5 -50 -12 -53 -7 -3 5 -6 28
-6 52 -1 77 18 77 57 0 46 -18 62 -72 61 -25 0 -40 -3 -33 -6z m86 -25 c17
-28 -4 -72 -37 -76 -26 -3 -27 -2 -27 48 0 50 1 51 26 48 15 -2 32 -11 38 -20z"/>
<path d="M6058 1789 c6 -7 12 -32 12 -55 0 -25 -5 -44 -12 -47 -7 -3 8 -6 33
-6 48 -1 68 16 52 42 -5 7 -8 26 -8 42 0 28 -2 30 -45 33 -36 3 -43 1 -32 -9z
m67 -24 c0 -30 -39 -27 -43 3 -3 20 0 23 20 20 15 -2 23 -10 23 -23z m3 -52
c-2 -10 -13 -19 -26 -21 -17 -3 -22 2 -22 17 0 16 6 21 26 21 19 0 25 -5 22
-17z"/>
<path d="M6511 1791 c-23 -6 243 -4 284 3 11 2 -43 3 -120 4 -77 0 -151 -3
-164 -7z"/>
<path d="M6240 1783 c0 -4 5 -15 10 -23 8 -13 10 -13 10 2 0 9 -4 20 -10 23
-5 3 -10 3 -10 -2z"/>
<path d="M6828 1783 c7 -3 16 -2 19 1 4 3 -2 6 -13 5 -11 0 -14 -3 -6 -6z"/>
<path d="M5812 1760 c-6 -11 -9 -27 -5 -37 6 -14 9 -10 14 17 9 42 7 45 -9 20z"/>
<path d="M855 1760 c-8 -13 5 -13 25 0 13 8 13 10 -2 10 -9 0 -20 -4 -23 -10z"/>
<path d="M2238 1763 c7 -3 16 -2 19 1 4 3 -2 6 -13 5 -11 0 -14 -3 -6 -6z"/>
<path d="M2278 1753 c7 -3 16 -2 19 1 4 3 -2 6 -13 5 -11 0 -14 -3 -6 -6z"/>
<path d="M2315 1740 c-3 -5 -1 -10 4 -10 6 0 11 5 11 10 0 6 -2 10 -4 10 -3 0
-8 -4 -11 -10z"/>
<path d="M1725 1730 c3 -5 8 -10 11 -10 2 0 4 5 4 10 0 6 -5 10 -11 10 -5 0
-7 -4 -4 -10z"/>
<path d="M2597 1733 c-4 -3 -7 -23 -7 -44 0 -20 -6 -40 -12 -43 -7 -3 -4 -5 7
-3 16 2 21 11 23 44 2 29 8 43 20 46 13 4 12 5 -4 6 -11 0 -24 -2 -27 -6z"/>
<path d="M4540 1736 c0 -2 6 -9 13 -15 10 -8 14 -7 14 4 0 8 -6 15 -14 15 -7
0 -13 -2 -13 -4z"/>
<path d="M4883 1733 c170 -2 444 -2 610 0 166 1 28 2 -308 2 -335 0 -471 -1
-302 -2z"/>
<path d="M6482 1728 c-7 -7 -11 -35 -10 -67 l1 -56 6 55 6 55 50 6 c34 4 40 6
18 7 -17 1 -37 4 -45 7 -7 3 -19 0 -26 -7z"/>
<path d="M6795 1730 c-38 -7 -37 -7 18 -9 l59 -1 -4 -69 c-2 -38 0 -67 5 -64
10 6 9 143 -2 143 -5 0 -15 2 -23 4 -7 1 -31 0 -53 -4z"/>
<path d="M2348 1723 c7 -3 16 -2 19 1 4 3 -2 6 -13 5 -11 0 -14 -3 -6 -6z"/>
<path d="M4410 1700 c12 -22 12 -22 34 -14 9 3 16 14 16 23 0 14 -2 14 -10 1
-8 -13 -13 -13 -30 -2 -20 12 -20 11 -10 -8z"/>
<path d="M6628 1713 c23 -2 61 -2 85 0 23 2 4 4 -43 4 -47 0 -66 -2 -42 -4z"/>
<path d="M822 1680 c0 -19 2 -27 5 -17 2 9 2 25 0 35 -3 9 -5 1 -5 -18z"/>
<path d="M2650 1700 c0 -5 5 -10 11 -10 5 0 7 5 4 10 -3 6 -8 10 -11 10 -2 0
-4 -4 -4 -10z"/>
<path d="M578 1675 c3 -20 0 -25 -17 -25 -14 0 -20 4 -15 11 4 7 -7 1 -24 -11
-23 -17 -39 -21 -65 -17 -50 8 -62 -4 -36 -37 17 -21 20 -37 17 -81 -3 -59 0
-63 37 -39 36 23 69 15 73 -18 2 -21 -1 -28 -13 -28 -12 0 -15 6 -10 20 10 30
-2 24 -20 -10 -13 -26 -21 -30 -55 -30 -21 0 -41 -4 -44 -8 -7 -12 106 -2 121
10 15 12 43 4 43 -12 0 -6 -24 -10 -54 -10 -30 0 -58 -4 -61 -10 -3 -5 -17
-10 -31 -10 -16 0 -24 -6 -24 -17 0 -16 13 -18 130 -18 l130 0 -6 45 c-8 52
-14 65 -14 27 0 -14 -5 -29 -10 -32 -7 -5 -10 10 -9 42 2 68 -3 152 -8 126 -5
-25 -24 -35 -44 -22 -11 8 -10 13 9 28 17 15 22 30 22 69 0 53 -7 82 -20 82
-4 0 -5 -11 -2 -25z m-8 -70 c0 -8 -4 -15 -10 -15 -5 0 -10 -6 -10 -13 0 -7
-14 -28 -31 -45 -29 -30 -33 -31 -45 -15 -16 21 -18 43 -4 43 6 0 10 5 10 12
0 6 7 20 17 30 20 22 73 25 73 3z m-90 -5 c0 -5 -4 -10 -10 -10 -5 0 -10 5
-10 10 0 6 5 10 10 10 6 0 10 -4 10 -10z m-10 -101 c0 -5 -4 -9 -10 -9 -5 0
-10 7 -10 16 0 8 5 12 10 9 6 -3 10 -10 10 -16z m130 -34 c0 -8 -4 -17 -10
-20 -6 -4 -10 5 -10 20 0 15 4 24 10 20 6 -3 10 -12 10 -20z"/>
<path d="M2428 1693 c15 -3 22 -10 18 -18 -3 -9 0 -12 8 -9 15 6 32 -12 39
-41 3 -14 5 -11 6 10 1 24 -6 35 -28 48 -16 9 -37 16 -48 16 -13 -1 -11 -3 5
-6z"/>
<path d="M2535 1690 c-3 -5 -1 -10 4 -10 6 0 11 5 11 10 0 6 -2 10 -4 10 -3 0
-8 -4 -11 -10z"/>
<path d="M5820 1690 c0 -5 5 -10 11 -10 5 0 7 5 4 10 -3 6 -8 10 -11 10 -2 0
-4 -4 -4 -10z"/>
<path d="M1745 1680 c-7 -12 2 -12 30 0 19 8 19 9 -2 9 -12 1 -25 -3 -28 -9z"/>
<path d="M1858 1683 c12 -2 30 -2 40 0 9 3 -1 5 -23 4 -22 0 -30 -2 -17 -4z"/>
<path d="M1958 1683 c12 -2 30 -2 40 0 9 3 -1 5 -23 4 -22 0 -30 -2 -17 -4z"/>
<path d="M2058 1683 c12 -2 30 -2 40 0 9 3 -1 5 -23 4 -22 0 -30 -2 -17 -4z"/>
<path d="M2153 1683 c9 -2 23 -2 30 0 6 3 -1 5 -18 5 -16 0 -22 -2 -12 -5z"/>
<path d="M710 1661 c0 -6 4 -13 10 -16 6 -3 7 1 4 9 -7 18 -14 21 -14 7z"/>
<path d="M1158 1665 c-4 -4 -4 -13 -2 -20 4 -8 -3 -15 -18 -17 -29 -4 -36 -46
-12 -82 12 -20 24 -26 48 -25 27 2 28 2 6 6 -54 10 -43 23 20 23 50 0 61 3 52
12 -7 7 -12 25 -12 40 0 21 -5 28 -19 28 -11 0 -22 -4 -25 -9 -4 -5 2 -7 12
-4 15 4 19 -1 20 -26 0 -22 -4 -31 -15 -31 -9 0 -13 6 -9 15 3 8 1 15 -4 15
-6 0 -10 -4 -10 -10 0 -5 -4 -10 -9 -10 -6 0 -11 23 -13 51 -2 28 -6 48 -10
44z m2 -75 c0 -35 -25 -42 -35 -10 -8 24 1 40 21 40 9 0 14 -11 14 -30z"/>
<path d="M2253 1663 c9 -2 25 -2 35 0 9 3 1 5 -18 5 -19 0 -27 -2 -17 -5z"/>
<path d="M2353 1663 c9 -2 25 -2 35 0 9 3 1 5 -18 5 -19 0 -27 -2 -17 -5z"/>
<path d="M2655 1659 c-5 -5 -25 -23 -44 -39 -19 -17 -31 -34 -27 -37 3 -4 12
0 19 9 6 8 28 24 47 34 19 11 41 25 48 32 11 10 9 12 -10 12 -13 -1 -27 -5
-33 -11z"/>
<path d="M4617 1646 c10 -13 20 -20 21 -15 5 12 -17 39 -30 39 -5 0 -1 -11 9
-24z"/>
<path d="M1720 1645 c-8 -9 -8 -15 -2 -15 12 0 26 19 19 26 -2 2 -10 -2 -17
-11z"/>
<path d="M2450 1635 c-8 -9 -8 -15 -2 -15 12 0 26 19 19 26 -2 2 -10 -2 -17
-11z"/>
<path d="M5900 1640 c0 -5 7 -7 15 -4 8 4 15 8 15 10 0 2 -7 4 -15 4 -8 0 -15
-4 -15 -10z"/>
<path d="M6158 1643 c7 -3 16 -2 19 1 4 3 -2 6 -13 5 -11 0 -14 -3 -6 -6z"/>
<path d="M1365 1631 c-3 -5 -1 -12 5 -16 5 -3 10 -19 10 -36 0 -21 5 -29 18
-28 10 0 12 3 5 6 -7 2 -13 18 -13 34 0 16 5 29 13 29 8 0 7 4 -3 10 -19 12
-27 12 -35 1z"/>
<path d="M747 1609 c4 -13 8 -18 11 -10 2 7 -1 18 -6 23 -8 8 -9 4 -5 -13z"/>
<path d="M855 1620 c3 -5 14 -10 23 -10 15 0 15 2 2 10 -20 13 -33 13 -25 0z"/>
<path d="M1026 1621 c-4 -5 2 -7 12 -4 15 4 19 -1 20 -26 0 -22 -4 -31 -15
-31 -9 0 -13 6 -9 15 3 8 1 15 -4 15 -6 0 -10 -8 -10 -19 0 -18 25 -31 64 -31
18 0 18 1 3 18 -10 10 -17 31 -17 45 0 20 -5 27 -19 27 -11 0 -22 -4 -25 -9z"/>
<path d="M1265 1622 c-3 -3 0 -11 6 -18 19 -23 7 -68 -21 -75 -21 -6 -20 -7
12 -8 28 -1 36 2 32 13 -4 9 3 16 18 19 l23 4 -23 2 c-19 1 -23 6 -20 29 4 34
32 36 36 3 3 -18 6 -21 12 -11 14 23 -7 49 -40 48 -16 -1 -32 -3 -35 -6z"/>
<path d="M1458 1623 c20 -8 13 -25 -8 -18 -15 5 -20 2 -20 -14 0 -11 5 -23 11
-27 8 -4 7 -9 -2 -15 -10 -6 -4 -9 19 -9 38 0 41 7 7 20 -29 11 -33 30 -7 30
10 0 21 3 25 6 10 11 -5 34 -22 33 -10 0 -11 -2 -3 -6z"/>
<path d="M1512 1622 c-8 -2 -8 -9 0 -22 9 -14 9 -22 -1 -34 -12 -14 -9 -16 27
-16 23 0 44 4 47 10 4 6 -6 7 -25 4 -27 -6 -30 -4 -30 19 0 14 8 30 18 36 15
9 15 10 -4 8 -12 0 -26 -3 -32 -5z"/>
<path d="M2696 1613 c4 -13 -6 -25 -36 -43 -22 -14 -40 -28 -40 -32 0 -13 9
-9 60 25 49 33 50 34 31 51 -19 17 -19 17 -15 -1z"/>
<path d="M4296 1613 c28 -25 61 -43 79 -43 28 0 15 15 -33 38 -56 27 -73 28
-46 5z"/>
<path d="M5941 1626 c2 -2 31 -6 64 -9 37 -3 51 -2 35 3 -25 8 -107 13 -99 6z"/>
<path d="M6088 1623 c12 -2 30 -2 40 0 9 3 -1 5 -23 4 -22 0 -30 -2 -17 -4z"/>
<path d="M4250 1582 c0 -12 19 -26 26 -19 2 2 -2 10 -11 17 -9 8 -15 8 -15 2z"/>
<path d="M6495 1570 c-3 -5 -1 -10 4 -10 6 0 11 5 11 10 0 6 -2 10 -4 10 -3 0
-8 -4 -11 -10z"/>
<path d="M786 1557 c3 -10 9 -15 12 -12 3 3 0 11 -7 18 -10 9 -11 8 -5 -6z"/>
<path d="M958 1563 c7 -3 16 -2 19 1 4 3 -2 6 -13 5 -11 0 -14 -3 -6 -6z"/>
<path d="M2725 1560 c3 -5 10 -10 16 -10 5 0 9 5 9 10 0 6 -7 10 -16 10 -8 0
-12 -4 -9 -10z"/>
<path d="M6528 1553 c7 -3 16 -2 19 1 4 3 -2 6 -13 5 -11 0 -14 -3 -6 -6z"/>
<path d="M6798 1553 c7 -3 16 -2 19 1 4 3 -2 6 -13 5 -11 0 -14 -3 -6 -6z"/>
<path d="M6613 1543 c31 -2 83 -2 115 0 31 2 5 3 -58 3 -63 0 -89 -1 -57 -3z"/>
<path d="M2466 1525 c4 -8 8 -15 10 -15 2 0 4 7 4 15 0 8 -4 15 -10 15 -5 0
-7 -7 -4 -15z"/>
<path d="M1348 1523 c12 -2 30 -2 40 0 9 3 -1 5 -23 4 -22 0 -30 -2 -17 -4z"/>
<path d="M2758 1523 c7 -3 16 -2 19 1 4 3 -2 6 -13 5 -11 0 -14 -3 -6 -6z"/>
<path d="M4737 1519 c7 -7 15 -10 18 -7 3 3 -2 9 -12 12 -14 6 -15 5 -6 -5z"/>
<path d="M2791 1509 c-1 -18 -46 -52 -68 -52 -7 0 -13 -9 -13 -19 0 -11 7 -18
20 -18 11 0 19 4 18 9 -2 5 11 20 28 33 24 18 29 27 23 43 -6 15 -8 16 -8 4z"/>
<path d="M840 1501 c0 -6 4 -13 10 -16 6 -3 7 1 4 9 -7 18 -14 21 -14 7z"/>
<path d="M2684 1495 c-3 -8 -2 -20 2 -26 5 -9 10 -5 16 10 6 17 13 21 30 16
18 -5 20 -4 8 4 -22 15 -50 13 -56 -4z"/>
<path d="M6186 1493 c-6 -14 -5 -15 5 -6 7 7 10 15 7 18 -3 3 -9 -2 -12 -12z"/>
<path d="M2211 1491 c-7 -5 -12 -14 -10 -20 2 -6 10 -2 17 9 14 22 13 23 -7
11z"/>
<path d="M4212 1482 c2 -13 15 -31 30 -40 23 -14 30 -14 52 -2 36 19 32 26
-13 22 -31 -3 -42 0 -55 20 l-17 23 3 -23z"/>
<path d="M880 1446 c0 -8 4 -17 9 -20 5 -4 7 3 4 14 -6 23 -13 26 -13 6z"/>
<path d="M2805 1435 c-11 -14 -27 -27 -37 -30 -22 -8 -32 -36 -16 -47 19 -11
36 -10 18 2 -13 9 -11 14 13 35 15 14 34 25 41 25 7 0 21 9 31 20 18 19 17 20
-6 20 -13 -1 -33 -12 -44 -25z"/>
<path d="M2145 1440 c-3 -5 -1 -10 4 -10 6 0 11 5 11 10 0 6 -2 10 -4 10 -3 0
-8 -4 -11 -10z"/>
<path d="M4810 1435 c7 -8 17 -15 22 -15 6 0 5 7 -2 15 -7 8 -17 15 -22 15 -6
0 -5 -7 2 -15z"/>
<path d="M2925 1410 c3 -5 11 -10 16 -10 6 0 7 5 4 10 -3 6 -11 10 -16 10 -6
0 -7 -4 -4 -10z"/>
<path d="M916 1397 c3 -10 9 -15 12 -12 3 3 0 11 -7 18 -10 9 -11 8 -5 -6z"/>
<path d="M2065 1390 c-3 -5 -1 -10 4 -10 6 0 11 5 11 10 0 6 -2 10 -4 10 -3 0
-8 -4 -11 -10z"/>
<path d="M2836 1359 c-21 -16 -45 -29 -53 -29 -11 0 -11 -3 -1 -13 10 -11 15
-12 25 -1 7 6 28 22 48 34 19 12 33 26 29 31 -6 11 -2 13 -48 -22z"/>
<path d="M6086 1363 c-6 -14 -5 -15 5 -6 7 7 10 15 7 18 -3 3 -9 -2 -12 -12z"/>
<path d="M1623 1363 c15 -2 37 -2 50 0 12 2 0 4 -28 4 -27 0 -38 -2 -22 -4z"/>
<path d="M2421 1354 c0 -11 3 -14 6 -6 3 7 2 16 -1 19 -3 4 -6 -2 -5 -13z"/>
<path d="M5193 1363 c15 -2 37 -2 50 0 12 2 0 4 -28 4 -27 0 -38 -2 -22 -4z"/>
<path d="M1503 1353 c9 -2 25 -2 35 0 9 3 1 5 -18 5 -19 0 -27 -2 -17 -5z"/>
<path d="M5083 1353 c9 -2 23 -2 30 0 6 3 -1 5 -18 5 -16 0 -22 -2 -12 -5z"/>
<path d="M5338 1353 c7 -3 16 -2 19 1 4 3 -2 6 -13 5 -11 0 -14 -3 -6 -6z"/>
<path d="M1410 1330 c-13 -9 -13 -10 0 -10 8 0 22 5 30 10 13 9 13 10 0 10 -8
0 -22 -5 -30 -10z"/>
<path d="M1858 1333 c7 -3 16 -2 19 1 4 3 -2 6 -13 5 -11 0 -14 -3 -6 -6z"/>
<path d="M1975 1330 c-3 -5 -1 -10 4 -10 6 0 11 5 11 10 0 6 -2 10 -4 10 -3 0
-8 -4 -11 -10z"/>
<path d="M4985 1330 c-25 -11 1 -11 35 0 20 6 21 8 5 8 -11 0 -29 -3 -40 -8z"/>
<path d="M5428 1333 c7 -3 16 -2 19 1 4 3 -2 6 -13 5 -11 0 -14 -3 -6 -6z"/>
<path d="M6055 1329 c-4 -6 -5 -12 -2 -15 2 -3 7 2 10 11 7 17 1 20 -8 4z"/>
<path d="M5331 1325 c-9 -34 -5 -115 6 -115 8 0 10 7 6 18 -6 16 -5 16 14 0
11 -10 24 -18 29 -18 5 0 1 5 -8 11 -10 5 -18 17 -18 24 0 8 -4 15 -9 15 -6 0
-12 17 -14 38 -2 20 -5 33 -6 27z"/>
<path d="M1946 1305 c10 -8 24 -14 29 -14 6 0 1 6 -9 14 -11 8 -24 15 -30 15
-5 0 -1 -7 10 -15z"/>
<path d="M2890 1313 c-26 -10 -60 -53 -60 -76 0 -18 3 -16 17 11 9 19 27 38
40 43 13 5 23 13 23 19 0 5 -1 10 -2 9 -2 0 -10 -3 -18 -6z"/>
<path d="M5516 1305 c25 -19 40 -19 24 0 -7 8 -20 15 -28 15 -13 0 -12 -3 4
-15z"/>
<path d="M1306 1293 c-21 -3 -26 -7 -16 -13 11 -7 8 -13 -13 -30 -38 -30 -34
-40 16 -40 27 0 37 3 28 9 -7 5 -23 6 -35 3 -19 -5 -20 -4 -7 12 8 9 16 14 19
11 3 -3 10 5 16 17 6 12 18 24 26 26 13 5 13 3 1 -11 -10 -13 -10 -17 -1 -17
9 0 11 -14 8 -50 -4 -38 -2 -50 9 -50 9 0 12 7 7 25 -5 20 -2 25 14 25 11 0
27 10 36 23 16 21 17 21 13 -24 -3 -34 -1 -46 10 -46 8 0 11 7 7 19 -4 13 1
21 17 26 l23 9 -23 6 c-19 5 -22 10 -17 31 6 25 -9 46 -17 24 -4 -10 -7 -11
-18 0 -17 16 -37 16 -21 0 7 -7 12 -22 12 -35 0 -17 -6 -23 -21 -23 -18 0 -20
5 -16 27 6 32 -1 54 -17 52 -6 -1 -24 -4 -40 -6z"/>
<path d="M1587 1292 c-2 -4 -2 -24 0 -44 4 -27 10 -38 22 -37 10 0 11 2 4 6
-16 6 -17 45 -2 60 7 7 6 12 -5 16 -8 3 -17 3 -19 -1z"/>
<path d="M4895 1290 c-3 -6 1 -7 9 -4 18 7 21 14 7 14 -6 0 -13 -4 -16 -10z"/>
<path d="M1472 1273 c9 -10 18 -27 21 -38 4 -16 5 -15 6 6 1 25 -15 49 -33 49
-5 0 -2 -8 6 -17z"/>
<path d="M1652 1274 c-26 -29 6 -75 42 -61 30 12 14 78 -18 77 -6 -1 -17 -7
-24 -16z m48 -35 c0 -12 -7 -19 -19 -19 -23 0 -35 28 -20 46 15 18 39 1 39
-27z"/>
<path d="M1805 1279 c-4 -6 -4 -13 -1 -16 3 -4 6 -1 6 5 0 7 6 12 13 12 9 0
14 -12 15 -30 0 -20 -4 -30 -14 -30 -8 0 -12 5 -9 10 3 6 1 10 -4 10 -6 0 -11
-7 -11 -15 0 -10 10 -15 28 -15 26 0 27 2 24 40 -3 31 -8 40 -22 40 -11 0 -22
-5 -25 -11z"/>
<path d="M1923 1279 c25 -15 23 -59 -4 -59 -17 0 -20 5 -17 25 5 26 -5 41 -21
30 -5 -3 -6 -17 -2 -33 4 -15 4 -39 0 -54 -5 -21 -4 -28 7 -28 8 0 14 10 14
24 0 18 6 25 23 28 40 6 33 78 -8 78 -5 -1 -2 -5 8 -11z"/>
<path d="M2001 1281 c-21 -6 -23 -12 -25 -64 -1 -39 3 -57 11 -57 7 0 12 10
10 22 -1 16 5 23 23 28 19 4 26 13 28 37 3 34 -9 43 -47 34z m25 -38 c17 -17
17 -18 -1 -21 -9 -2 -21 2 -26 10 -20 31 -1 39 27 11z"/>
<path d="M2402 1278 c-7 -7 -12 -21 -12 -32 0 -17 3 -16 15 8 17 32 15 42 -3
24z"/>
<path d="M5035 1249 c0 -22 5 -39 10 -39 14 0 14 68 1 73 -7 3 -11 -11 -11
-34z"/>
<path d="M5079 1278 c7 -10 11 -29 9 -43 -3 -15 -1 -25 7 -25 17 0 6 57 -14
72 -14 12 -15 11 -2 -4z"/>
<path d="M5164 1265 c-3 -14 -4 -32 0 -40 7 -19 40 -19 56 0 11 13 14 13 27 0
8 -8 22 -15 31 -14 12 0 11 3 -5 9 -15 6 -23 18 -23 32 0 17 -3 19 -9 9 -7
-11 -11 -9 -20 8 -16 29 -49 27 -57 -4z m44 -18 c2 -19 -1 -27 -13 -27 -19 0
-30 24 -21 46 9 23 31 11 34 -19z"/>
<path d="M5270 1280 c20 -13 33 -13 25 0 -3 6 -14 10 -23 10 -15 0 -15 -2 -2
-10z"/>
<path d="M4994 1245 c1 -36 16 -51 16 -16 0 11 3 26 6 35 4 10 1 16 -8 16 -10
0 -14 -11 -14 -35z"/>
<path d="M2935 1247 c-9 -14 -30 -32 -48 -41 -30 -15 -31 -16 -7 -15 30 0 52
15 69 47 17 33 6 39 -14 9z"/>
<path d="M4843 1248 c-24 -32 -24 -41 0 -19 15 14 27 26 27 28 0 8 -19 2 -27
-9z"/>
<path d="M2968 1203 c-1 -5 -20 -21 -41 -37 -55 -41 -38 -44 22 -3 28 18 48
37 44 40 -9 9 -21 9 -25 0z"/>
<path d="M620 1193 c0 -5 74 -8 164 -8 90 0 162 3 159 8 -2 4 -76 7 -164 7
-87 0 -159 -3 -159 -7z"/>
<path d="M5641 1172 c-1 -22 3 -31 10 -26 6 3 33 -18 60 -47 32 -35 49 -47 49
-36 0 9 5 17 12 17 6 0 8 3 5 7 -4 3 -3 11 2 17 4 6 11 25 14 42 l6 30 -52 -7
c-86 -12 -95 -11 -100 14 -3 15 -5 12 -6 -11z"/>
<path d="M2072 1165 c0 -16 2 -22 5 -12 2 9 2 23 0 30 -3 6 -5 -1 -5 -18z"/>
<path d="M2382 1170 c0 -14 2 -19 5 -12 2 6 2 18 0 25 -3 6 -5 1 -5 -13z"/>
<path d="M605 1159 c-4 -6 -5 -12 -2 -15 2 -3 7 2 10 11 7 17 1 20 -8 4z"/>
<path d="M956 1157 c3 -10 9 -15 12 -12 3 3 0 11 -7 18 -10 9 -11 8 -5 -6z"/>
<path d="M1231 1154 c0 -11 3 -14 6 -6 3 7 2 16 -1 19 -3 4 -6 -2 -5 -13z"/>
<path d="M2998 1164 c6 -3 12 -11 12 -17 0 -14 -60 -57 -80 -57 -11 0 -11 -3
-2 -12 9 -9 21 -5 54 19 46 33 56 66 23 70 -11 2 -14 0 -7 -3z"/>
<path d="M1528 1135 c-4 -4 -4 -13 -1 -21 3 -9 -2 -14 -16 -14 -29 0 -49 -43
-31 -65 7 -8 25 -15 40 -15 27 0 27 1 23 53 -6 65 -7 70 -15 62z m2 -75 c0
-20 -5 -30 -15 -30 -18 0 -30 24 -21 45 10 28 36 17 36 -15z"/>
<path d="M4821 1124 c0 -11 3 -14 6 -6 3 7 2 16 -1 19 -3 4 -6 -2 -5 -13z"/>
<path d="M4967 1134 c-3 -3 -3 -12 -1 -19 4 -8 -3 -15 -18 -17 -20 -3 -23 -9
-23 -43 0 -40 16 -64 44 -65 11 0 9 4 -5 15 -17 13 -13 14 46 15 50 0 61 3 52
12 -7 7 -12 25 -12 40 0 21 -5 28 -19 28 -11 0 -22 -4 -25 -9 -4 -5 2 -7 12
-4 15 4 19 -1 20 -26 0 -22 -4 -31 -15 -31 -9 0 -13 6 -9 15 3 8 1 15 -4 15
-6 0 -10 -5 -10 -12 0 -9 -3 -9 -11 -1 -6 6 -10 30 -7 52 3 39 -1 49 -15 35z
m3 -74 c0 -35 -25 -42 -35 -10 -8 24 1 40 21 40 9 0 14 -11 14 -30z"/>
<path d="M5224 1124 c3 -9 6 -36 6 -60 0 -42 1 -44 28 -43 24 2 25 2 4 6 -18
4 -23 11 -22 31 4 53 0 82 -11 82 -6 0 -8 -7 -5 -16z"/>
<path d="M575 1119 c-4 -6 -5 -12 -2 -15 2 -3 7 2 10 11 7 17 1 20 -8 4z"/>
<path d="M5087 1113 c-2 -4 -2 -27 1 -50 3 -31 9 -43 20 -43 12 0 13 3 4 12
-15 15 -16 55 -1 60 7 2 6 8 -4 16 -8 7 -17 9 -20 5z"/>
<path d="M1738 1105 c-3 -3 -2 -22 1 -42 5 -28 12 -38 26 -40 11 -2 14 0 8 3
-7 3 -13 19 -13 35 0 16 5 29 13 29 8 0 7 4 -3 10 -17 11 -24 12 -32 5z"/>
<path d="M1390 1091 c0 -5 8 -7 18 -5 13 4 17 -2 19 -26 2 -21 -2 -30 -13 -30
-10 0 -14 6 -10 15 3 8 1 15 -4 15 -6 0 -10 -9 -10 -20 0 -16 7 -20 31 -20 24
0 30 3 25 16 -3 9 -6 27 -6 40 0 19 -5 24 -25 24 -14 0 -25 -4 -25 -9z"/>
<path d="M1576 1092 c-3 -5 5 -7 17 -5 20 4 23 0 22 -24 0 -19 -6 -29 -19 -31
-14 -3 -17 0 -13 12 4 9 2 16 -4 16 -6 0 -9 -8 -7 -17 2 -12 14 -19 34 -21 31
-3 31 -3 25 35 -5 29 -11 39 -28 41 -11 2 -24 -1 -27 -6z"/>
<path d="M1650 1089 c-12 -7 -12 -9 -2 -9 10 0 13 -13 10 -50 -2 -33 1 -50 9
-50 6 0 9 9 6 20 -4 16 0 20 18 21 l24 0 -24 10 c-18 7 -22 15 -18 34 5 29 -3
38 -23 24z"/>
<path d="M1705 1084 c9 -9 13 -24 10 -33 -5 -12 -3 -13 5 -5 15 15 3 54 -16
54 -13 0 -13 -2 1 -16z"/>
<path d="M1807 1093 c-22 -21 2 -74 33 -72 10 0 9 3 -5 8 -24 9 -29 61 -7 61
8 0 12 -6 9 -14 -4 -10 -1 -13 8 -10 8 3 11 12 8 20 -5 14 -35 19 -46 7z"/>
<path d="M1879 1098 c0 -2 -1 -20 -2 -41 -2 -28 2 -37 14 -37 12 0 15 7 11 25
-2 14 1 32 8 40 10 13 9 15 -9 15 -11 0 -21 -1 -22 -2z"/>
<path d="M5146 1092 c-3 -5 5 -7 17 -5 20 4 23 0 22 -24 0 -19 -6 -29 -19 -31
-14 -3 -17 0 -13 12 4 9 2 16 -4 16 -6 0 -9 -8 -7 -17 2 -12 14 -19 34 -21 31
-3 31 -3 25 35 -5 29 -11 39 -28 41 -11 2 -24 -1 -27 -6z"/>
<path d="M5274 1087 c12 -9 17 -20 13 -31 -4 -9 -2 -16 4 -16 20 0 5 55 -16
58 -20 4 -20 3 -1 -11z"/>
<path d="M5330 1091 c0 -5 8 -7 18 -5 13 4 17 -2 19 -26 2 -21 -2 -30 -13 -30
-10 0 -14 6 -10 15 3 8 1 15 -4 15 -6 0 -10 -9 -10 -20 0 -16 7 -20 31 -20 24
0 30 3 25 16 -3 9 -6 27 -6 40 0 19 -5 24 -25 24 -14 0 -25 -4 -25 -9z"/>
<path d="M5415 1089 c-7 -11 22 -38 40 -38 6 -1 -1 8 -14 18 l-25 19 25 5 c22
4 22 4 2 6 -12 0 -25 -4 -28 -10z"/>
<path d="M5513 1094 c14 -5 16 -9 6 -20 -10 -12 -9 -13 5 -8 22 8 15 28 -10
31 -17 2 -17 1 -1 -3z"/>
<path d="M5821 1073 c13 -16 25 -30 27 -32 1 -2 5 -1 9 2 8 8 -36 57 -50 57
-6 0 0 -12 14 -27z"/>
<path d="M2352 1065 c0 -16 2 -22 5 -12 2 9 2 23 0 30 -3 6 -5 -1 -5 -18z"/>
<path d="M5480 1062 c0 -28 32 -52 58 -45 12 3 19 9 17 14 -3 4 -12 6 -20 2
-20 -7 -45 15 -38 33 3 8 0 14 -6 14 -6 0 -11 -8 -11 -18z"/>
<path d="M1026 1057 c3 -10 9 -15 12 -12 3 3 0 11 -7 18 -10 9 -11 8 -5 -6z"/>
<path d="M4865 1050 c3 -5 11 -10 16 -10 6 0 7 5 4 10 -3 6 -11 10 -16 10 -6
0 -7 -4 -4 -10z"/>
<path d="M1190 1031 c0 -6 4 -13 10 -16 6 -3 7 1 4 9 -7 18 -14 21 -14 7z"/>
<path d="M5410 1029 c0 -5 11 -9 25 -9 14 0 25 2 25 4 0 2 -11 6 -25 8 -14 3
-25 1 -25 -3z"/>
<path d="M1056 1017 c3 -10 9 -15 12 -12 3 3 0 11 -7 18 -10 9 -11 8 -5 -6z"/>
<path d="M501 984 c0 -11 3 -14 6 -6 3 7 2 16 -1 19 -3 4 -6 -2 -5 -13z"/>
<path d="M640 992 c0 -5 10 -7 23 -5 20 4 23 0 25 -31 2 -30 -1 -36 -18 -36
-11 0 -20 7 -20 15 0 8 5 15 12 15 6 0 8 3 5 6 -11 11 -36 -16 -30 -32 3 -9
20 -14 44 -14 28 0 37 4 33 13 -3 8 -6 27 -7 43 -2 25 -7 29 -35 32 -17 2 -32
-1 -32 -6z"/>
<path d="M725 991 c-3 -6 -1 -11 5 -11 7 0 10 -19 8 -55 -3 -38 0 -55 8 -55 7
0 10 8 7 20 -4 16 0 20 20 20 55 0 70 82 16 87 l-24 3 23 -10 c18 -8 23 -16
20 -37 -2 -22 -8 -28 -28 -28 -22 0 -25 5 -26 34 0 34 -16 52 -29 32z"/>
<path d="M840 990 c-11 -7 -12 -10 -2 -10 10 0 13 -14 10 -55 -3 -50 -1 -55
17 -55 15 0 17 2 6 9 -19 12 -4 31 25 31 32 0 51 38 35 69 -7 12 -21 21 -34
20 l-22 0 23 -10 c29 -11 28 -62 -2 -67 -25 -5 -37 16 -30 51 6 28 -1 33 -26
17z"/>
<path d="M1226 987 c3 -10 9 -15 12 -12 3 3 0 11 -7 18 -10 9 -11 8 -5 -6z"/>
<path d="M5881 984 c0 -11 3 -14 6 -6 3 7 2 16 -1 19 -3 4 -6 -2 -5 -13z"/>
<path d="M1458 978 c5 -5 16 -8 23 -6 8 3 3 7 -10 11 -17 4 -21 3 -13 -5z"/>
<path d="M1868 983 c7 -3 16 -2 19 1 4 3 -2 6 -13 5 -11 0 -14 -3 -6 -6z"/>
<path d="M5029 977 c5 -5 19 -7 32 -5 20 3 19 5 -9 9 -20 3 -29 2 -23 -4z"/>
<path d="M5438 983 c7 -3 16 -2 19 1 4 3 -2 6 -13 5 -11 0 -14 -3 -6 -6z"/>
<path d="M2321 954 c0 -11 3 -14 6 -6 3 7 2 16 -1 19 -3 4 -6 -2 -5 -13z"/>
<path d="M5776 953 c-6 -14 -5 -15 5 -6 7 7 10 15 7 18 -3 3 -9 -2 -12 -12z"/>
<path d="M1548 953 c12 -2 30 -2 40 0 9 3 -1 5 -23 4 -22 0 -30 -2 -17 -4z"/>
<path d="M1643 953 c9 -2 25 -2 35 0 9 3 1 5 -18 5 -19 0 -27 -2 -17 -5z"/>
<path d="M1743 953 c9 -2 25 -2 35 0 9 3 1 5 -18 5 -19 0 -27 -2 -17 -5z"/>
<path d="M5133 953 c9 -2 25 -2 35 0 9 3 1 5 -18 5 -19 0 -27 -2 -17 -5z"/>
<path d="M5228 938 c5 -18 7 -19 10 -6 2 9 13 19 25 21 16 3 13 5 -10 6 -28 1
-30 -1 -25 -21z"/>
<path d="M5323 953 c9 -2 23 -2 30 0 6 3 -1 5 -18 5 -16 0 -22 -2 -12 -5z"/>
<path d="M5892 935 c0 -16 2 -22 5 -12 2 9 2 23 0 30 -3 6 -5 -1 -5 -18z"/>
<path d="M1025 919 c-4 -6 -5 -12 -2 -15 2 -3 7 2 10 11 7 17 1 20 -8 4z"/>
<path d="M1286 917 c3 -10 9 -15 12 -12 3 3 0 11 -7 18 -10 9 -11 8 -5 -6z"/>
<path d="M5745 919 c-4 -6 -5 -12 -2 -15 2 -3 7 2 10 11 7 17 1 20 -8 4z"/>
<path d="M2309 872 c-3 -20 -2 -29 4 -23 5 5 7 19 5 32 -3 20 -5 19 -9 -9z"/>
<path d="M986 853 c-6 -14 -5 -15 5 -6 7 7 10 15 7 18 -3 3 -9 -2 -12 -12z"/>
<path d="M5260 851 c0 -5 5 -13 10 -16 6 -3 10 -2 10 4 0 5 -4 13 -10 16 -5 3
-10 2 -10 -4z"/>
<path d="M5847 829 c-4 -16 -3 -18 9 -8 16 13 19 29 5 29 -5 0 -11 -9 -14 -21z"/>
<path d="M955 819 c-4 -6 -5 -12 -2 -15 2 -3 7 2 10 11 7 17 1 20 -8 4z"/>
<path d="M2280 776 c0 -15 -7 -26 -17 -29 -14 -4 -12 -5 5 -6 18 -1 22 4 22
29 0 17 -2 30 -5 30 -3 0 -5 -11 -5 -24z"/>
<path d="M5646 783 c-6 -14 -5 -15 5 -6 7 7 10 15 7 18 -3 3 -9 -2 -12 -12z"/>
<path d="M1953 783 c15 -2 37 -2 50 0 12 2 0 4 -28 4 -27 0 -38 -2 -22 -4z"/>
<path d="M2073 783 c9 -2 23 -2 30 0 6 3 -1 5 -18 5 -16 0 -22 -2 -12 -5z"/>
<path d="M5790 780 c-13 -8 -13 -10 2 -10 9 0 20 5 23 10 8 13 -5 13 -25 0z"/>
<path d="M713 773 c43 -2 110 -2 150 0 40 1 5 3 -78 3 -82 0 -115 -2 -72 -3z"/>
<path d="M1843 773 c9 -2 23 -2 30 0 6 3 -1 5 -18 5 -16 0 -22 -2 -12 -5z"/>
<path d="M2153 773 c9 -2 23 -2 30 0 6 3 -1 5 -18 5 -16 0 -22 -2 -12 -5z"/>
<path d="M1736 751 c-3 -4 6 -6 19 -3 14 2 25 6 25 8 0 8 -39 4 -44 -5z"/>
<path d="M2040 751 l-35 -4 30 -6 c18 -4 31 -13 33 -25 3 -14 0 -17 -12 -12
-45 18 -48 16 -13 -8 21 -15 43 -25 50 -22 9 3 9 5 0 5 -17 1 -17 58 -1 63 22
8 -15 14 -52 9z"/>
<path d="M5615 749 c-4 -6 -5 -12 -2 -15 2 -3 7 2 10 11 7 17 1 20 -8 4z"/>
<path d="M1867 743 c-10 -16 9 -87 23 -91 13 -5 13 -3 1 11 -8 11 -11 28 -8
47 6 27 -6 50 -16 33z"/>
<path d="M1940 746 c0 -2 9 -6 20 -9 11 -3 18 -1 14 4 -5 9 -34 13 -34 5z"/>
<path d="M1655 720 c-8 -13 5 -13 25 0 13 8 13 10 -2 10 -9 0 -20 -4 -23 -10z"/>
<path d="M1928 713 c6 -2 18 -2 25 0 6 3 1 5 -13 5 -14 0 -19 -2 -12 -5z"/>
<path d="M2340 716 c0 -2 8 -10 18 -17 15 -13 16 -12 3 4 -13 16 -21 21 -21
13z"/>
<path d="M5596 713 c-3 -4 -28 -6 -54 -6 -29 0 -36 -1 -17 -4 17 -3 36 -9 43
-15 8 -7 12 -7 12 1 0 6 7 11 15 11 8 0 15 5 15 10 0 12 -4 13 -14 3z"/>
<path d="M5653 713 c9 -2 23 -2 30 0 6 3 -1 5 -18 5 -16 0 -22 -2 -12 -5z"/>
<path d="M1080 621 c0 -54 -5 -92 -12 -99 -9 -9 -9 -12 0 -12 9 0 12 -31 12
-110 l0 -110 145 0 145 0 0 208 0 207 -145 1 -145 2 0 -87z m58 32 c3 -38 1
-40 -22 -40 -24 0 -26 3 -26 42 0 37 2 41 23 40 18 -1 22 -8 25 -42z m42 -4
c0 -21 -4 -39 -10 -39 -5 0 -10 21 -10 46 0 27 4 43 10 39 6 -3 10 -24 10 -46z
m40 0 c0 -21 -4 -39 -10 -39 -5 0 -10 21 -10 46 0 27 4 43 10 39 6 -3 10 -24
10 -46z m30 0 c0 -21 -4 -39 -10 -39 -5 0 -10 21 -10 46 0 27 4 43 10 39 6 -3
10 -24 10 -46z m40 6 c0 -25 -4 -45 -10 -45 -5 0 -10 20 -10 45 0 25 5 45 10
45 6 0 10 -20 10 -45z m40 0 c0 -25 -4 -45 -10 -45 -11 0 -14 73 -3 83 11 12
13 8 13 -38z m30 0 c0 -25 -4 -45 -10 -45 -11 0 -14 73 -3 83 11 12 13 8 13
-38z m-225 -95 c0 -27 -4 -34 -22 -35 -20 -1 -23 3 -23 35 0 32 3 36 23 35 18
-1 22 -8 22 -35z m45 -6 c0 -19 -4 -34 -10 -34 -5 0 -10 18 -10 41 0 24 4 38
10 34 6 -3 10 -22 10 -41z m40 6 c0 -22 -4 -40 -10 -40 -5 0 -10 18 -10 40 0
22 5 40 10 40 6 0 10 -18 10 -40z m30 0 c0 -22 -4 -40 -10 -40 -5 0 -10 18
-10 40 0 22 5 40 10 40 6 0 10 -18 10 -40z m40 0 c0 -22 -4 -40 -10 -40 -5 0
-10 18 -10 40 0 22 5 40 10 40 6 0 10 -18 10 -40z m40 0 c0 -22 -4 -40 -10
-40 -11 0 -14 63 -3 73 11 12 13 8 13 -33z m30 0 c0 -22 -4 -40 -10 -40 -5 0
-10 18 -10 40 0 22 5 40 10 40 6 0 10 -18 10 -40z m-225 -95 c0 -33 -3 -39
-22 -40 -21 -1 -23 3 -23 42 0 39 2 43 23 39 18 -2 22 -9 22 -41z m45 6 c0
-22 -4 -43 -10 -46 -6 -4 -10 12 -10 39 0 25 5 46 10 46 6 0 10 -18 10 -39z
m40 -6 c0 -25 -4 -45 -10 -45 -5 0 -10 20 -10 45 0 25 5 45 10 45 6 0 10 -20
10 -45z m30 0 c0 -25 -4 -45 -10 -45 -5 0 -10 20 -10 45 0 25 5 45 10 45 6 0
10 -20 10 -45z m40 0 c0 -25 -4 -45 -10 -45 -5 0 -10 20 -10 45 0 25 5 45 10
45 6 0 10 -20 10 -45z m40 -1 c0 -27 -4 -43 -10 -39 -5 3 -10 24 -10 46 0 21
5 39 10 39 6 0 10 -21 10 -46z m30 1 c0 -25 -4 -45 -10 -45 -5 0 -10 20 -10
45 0 25 5 45 10 45 6 0 10 -20 10 -45z m-220 -111 c0 -51 -1 -54 -25 -54 -24
0 -25 3 -25 54 0 50 1 54 25 54 24 0 25 -4 25 -54z m40 1 c0 -30 -4 -55 -10
-55 -5 0 -10 25 -10 55 0 30 5 55 10 55 6 0 10 -25 10 -55z m40 0 c0 -30 -4
-55 -10 -55 -5 0 -10 25 -10 55 0 30 5 55 10 55 6 0 10 -25 10 -55z m30 0 c0
-30 -4 -55 -10 -55 -5 0 -10 25 -10 55 0 30 5 55 10 55 6 0 10 -25 10 -55z
m40 0 c0 -30 -4 -55 -10 -55 -5 0 -10 25 -10 55 0 30 5 55 10 55 6 0 10 -25
10 -55z m40 0 c0 -30 -4 -55 -10 -55 -5 0 -10 25 -10 55 0 30 5 55 10 55 6 0
10 -25 10 -55z m30 0 c0 -30 -4 -55 -10 -55 -5 0 -10 25 -10 55 0 30 5 55 10
55 6 0 10 -25 10 -55z"/>
<path d="M1585 670 c-10 -11 -16 -22 -13 -25 3 -3 13 4 23 15 10 11 16 22 13
25 -3 3 -13 -4 -23 -15z"/>
<path d="M1930 679 c0 -5 11 -9 25 -9 14 0 25 2 25 4 0 2 -11 6 -25 8 -14 3
-25 1 -25 -3z"/>
<path d="M2018 673 c6 -2 18 -2 25 0 6 3 1 5 -13 5 -14 0 -19 -2 -12 -5z"/>
<path d="M2390 620 c0 -11 4 -20 9 -20 5 0 7 9 4 20 -3 11 -7 20 -9 20 -2 0
-4 -9 -4 -20z"/>
<path d="M1840 601 c0 -5 5 -13 10 -16 6 -3 10 -2 10 4 0 5 -4 13 -10 16 -5 3
-10 2 -10 -4z"/>
<path d="M1570 582 c0 -12 19 -26 26 -19 2 2 -2 10 -11 17 -9 8 -15 8 -15 2z"/>
<path d="M1832 561 c-10 -6 -9 -10 7 -14 14 -3 21 0 21 9 0 16 -9 18 -28 5z"/>
<path d="M2078 565 c-10 -11 8 -79 22 -83 13 -5 13 -3 1 11 -8 11 -11 28 -7
47 5 27 -2 39 -16 25z"/>
<path d="M1560 551 c0 -6 4 -13 10 -16 6 -3 7 1 4 9 -7 18 -14 21 -14 7z"/>
<path d="M1730 551 c0 -5 8 -7 18 -4 14 3 18 -2 17 -24 0 -21 -5 -28 -18 -27
-23 2 -16 -20 7 -24 9 -2 25 0 34 4 9 4 29 6 44 5 14 -1 29 3 33 9 6 9 -1 10
-24 5 -24 -5 -31 -3 -31 9 0 9 -6 16 -14 16 -7 0 -16 9 -19 20 -5 20 -47 29
-47 11z m70 -51 c0 -5 -4 -10 -10 -10 -5 0 -10 5 -10 10 0 6 5 10 10 10 6 0
10 -4 10 -10z"/>
<path d="M1910 551 c0 -5 9 -7 20 -4 11 3 20 7 20 9 0 2 -9 4 -20 4 -11 0 -20
-4 -20 -9z"/>
<path d="M1963 548 c-23 -11 -31 -28 -13 -28 6 0 10 5 10 10 0 6 4 10 9 10 6
0 11 -15 13 -32 2 -23 9 -34 22 -36 19 -4 19 -3 2 14 -12 12 -16 26 -12 46 6
30 3 32 -31 16z"/>
<path d="M2026 549 c7 -8 14 -23 17 -34 4 -13 5 -9 4 9 -1 16 -9 32 -17 34
-12 4 -13 2 -4 -9z"/>
<path d="M2175 550 c3 -5 13 -10 21 -10 11 0 14 -8 12 -27 -2 -24 1 -28 23
-31 14 -2 31 4 39 12 8 10 8 16 2 16 -6 0 -14 -5 -17 -11 -11 -16 -28 -5 -32
20 -2 16 1 22 10 18 8 -3 14 1 14 9 0 10 -12 14 -39 14 -24 0 -37 -4 -33 -10z"/>
<path d="M2335 540 c-3 -5 -2 -10 4 -10 5 0 13 5 16 10 3 6 2 10 -4 10 -5 0
-13 -4 -16 -10z"/>
<path d="M2140 530 c0 -5 7 -7 15 -4 8 4 15 8 15 10 0 2 -7 4 -15 4 -8 0 -15
-4 -15 -10z"/>
<path d="M1596 507 c3 -10 9 -15 12 -12 3 3 0 11 -7 18 -10 9 -11 8 -5 -6z"/>
<path d="M1660 510 c8 -5 20 -10 25 -10 6 0 3 5 -5 10 -8 5 -19 10 -25 10 -5
0 -3 -5 5 -10z"/>
<path d="M5435 509 c-4 -6 -5 -12 -2 -15 2 -3 7 2 10 11 7 17 1 20 -8 4z"/>
<path d="M2140 502 c0 -13 15 -28 33 -35 27 -10 20 16 -8 30 -14 6 -25 8 -25
5z"/>
<path d="M1916 488 c7 -11 41 -10 49 1 3 5 -8 9 -24 9 -17 -1 -28 -5 -25 -10z"/>
<path d="M2038 463 c6 -2 18 -2 25 0 6 3 1 5 -13 5 -14 0 -19 -2 -12 -5z"/>
<path d="M1975 450 c-3 -5 3 -10 15 -10 12 0 18 5 15 10 -3 6 -10 10 -15 10
-5 0 -12 -4 -15 -10z"/>
<path d="M1690 381 c0 -6 4 -13 10 -16 6 -3 7 1 4 9 -7 18 -14 21 -14 7z"/>
<path d="M5336 373 c-6 -14 -5 -15 5 -6 7 7 10 15 7 18 -3 3 -9 -2 -12 -12z"/>
<path d="M5276 303 c-6 -14 -5 -15 5 -6 7 7 10 15 7 18 -3 3 -9 -2 -12 -12z"/>
<path d="M5237 251 c-4 -17 -3 -21 5 -13 5 5 8 16 6 23 -3 8 -7 3 -11 -10z"/>
<path d="M1870 138 c0 -5 7 -8 15 -8 8 0 746 0 1640 0 894 0 1630 0 1635 0 6
0 10 3 10 8 0 4 -743 7 -1650 7 -908 0 -1650 -3 -1650 -7z"/>
</g>
</svg>
